G75*
%MOIN*%
%OFA0B0*%
%FSLAX25Y25*%
%IPPOS*%
%LPD*%
%AMOC8*
5,1,8,0,0,1.08239X$1,22.5*
%
%ADD10C,0.00300*%
%ADD11C,0.00600*%
%ADD12C,0.00500*%
%ADD13C,0.00200*%
%ADD14C,0.00400*%
%ADD15C,0.00787*%
D10*
X0032357Y0014904D02*
X0032357Y0016138D01*
X0032357Y0015521D02*
X0035443Y0015521D01*
X0036060Y0014904D01*
X0036060Y0014287D01*
X0035443Y0013670D01*
X0036060Y0017353D02*
X0032357Y0017353D01*
X0036060Y0017353D02*
X0036060Y0019822D01*
X0035443Y0021036D02*
X0032974Y0021036D01*
X0032357Y0021653D01*
X0032357Y0022888D01*
X0032974Y0023505D01*
X0035443Y0023505D02*
X0036060Y0022888D01*
X0036060Y0021653D01*
X0035443Y0021036D01*
X0035443Y0024719D02*
X0036060Y0025336D01*
X0036060Y0025954D01*
X0035443Y0026571D01*
X0032357Y0026571D01*
X0032357Y0025954D02*
X0032357Y0027188D01*
X0032357Y0028402D02*
X0036060Y0028402D01*
X0036060Y0030871D01*
X0035443Y0032085D02*
X0032974Y0032085D01*
X0032357Y0032703D01*
X0032357Y0033937D01*
X0032974Y0034554D01*
X0035443Y0034554D02*
X0036060Y0033937D01*
X0036060Y0032703D01*
X0035443Y0032085D01*
X0035443Y0035769D02*
X0036060Y0036386D01*
X0036060Y0037003D01*
X0035443Y0037620D01*
X0032357Y0037620D01*
X0032357Y0037003D02*
X0032357Y0038237D01*
X0032357Y0039452D02*
X0036060Y0039452D01*
X0036060Y0041920D01*
X0035443Y0043135D02*
X0032974Y0043135D01*
X0032357Y0043752D01*
X0032357Y0044986D01*
X0032974Y0045604D01*
X0035443Y0045604D02*
X0036060Y0044986D01*
X0036060Y0043752D01*
X0035443Y0043135D01*
X0035443Y0046818D02*
X0036060Y0047435D01*
X0036060Y0048052D01*
X0035443Y0048670D01*
X0032357Y0048670D01*
X0032357Y0049287D02*
X0032357Y0048052D01*
X0032357Y0050501D02*
X0036060Y0050501D01*
X0036060Y0052970D01*
X0035443Y0054184D02*
X0036060Y0054801D01*
X0036060Y0056036D01*
X0035443Y0056653D01*
X0032974Y0056653D02*
X0032357Y0056036D01*
X0032357Y0054801D01*
X0032974Y0054184D01*
X0035443Y0054184D01*
D11*
X0116210Y0107320D02*
X0116210Y0111520D01*
X0116210Y0115520D01*
X0116210Y0119720D01*
X0116212Y0119796D01*
X0116218Y0119872D01*
X0116227Y0119947D01*
X0116241Y0120022D01*
X0116258Y0120096D01*
X0116279Y0120169D01*
X0116303Y0120241D01*
X0116332Y0120312D01*
X0116363Y0120381D01*
X0116398Y0120448D01*
X0116437Y0120513D01*
X0116479Y0120577D01*
X0116524Y0120638D01*
X0116572Y0120697D01*
X0116623Y0120753D01*
X0116677Y0120807D01*
X0116733Y0120858D01*
X0116792Y0120906D01*
X0116853Y0120951D01*
X0116917Y0120993D01*
X0116982Y0121032D01*
X0117049Y0121067D01*
X0117118Y0121098D01*
X0117189Y0121127D01*
X0117261Y0121151D01*
X0117334Y0121172D01*
X0117408Y0121189D01*
X0117483Y0121203D01*
X0117558Y0121212D01*
X0117634Y0121218D01*
X0117710Y0121220D01*
X0134710Y0121220D01*
X0134786Y0121218D01*
X0134862Y0121212D01*
X0134937Y0121203D01*
X0135012Y0121189D01*
X0135086Y0121172D01*
X0135159Y0121151D01*
X0135231Y0121127D01*
X0135302Y0121098D01*
X0135371Y0121067D01*
X0135438Y0121032D01*
X0135503Y0120993D01*
X0135567Y0120951D01*
X0135628Y0120906D01*
X0135687Y0120858D01*
X0135743Y0120807D01*
X0135797Y0120753D01*
X0135848Y0120697D01*
X0135896Y0120638D01*
X0135941Y0120577D01*
X0135983Y0120513D01*
X0136022Y0120448D01*
X0136057Y0120381D01*
X0136088Y0120312D01*
X0136117Y0120241D01*
X0136141Y0120169D01*
X0136162Y0120096D01*
X0136179Y0120022D01*
X0136193Y0119947D01*
X0136202Y0119872D01*
X0136208Y0119796D01*
X0136210Y0119720D01*
X0136210Y0107320D01*
X0136208Y0107244D01*
X0136202Y0107168D01*
X0136193Y0107093D01*
X0136179Y0107018D01*
X0136162Y0106944D01*
X0136141Y0106871D01*
X0136117Y0106799D01*
X0136088Y0106728D01*
X0136057Y0106659D01*
X0136022Y0106592D01*
X0135983Y0106527D01*
X0135941Y0106463D01*
X0135896Y0106402D01*
X0135848Y0106343D01*
X0135797Y0106287D01*
X0135743Y0106233D01*
X0135687Y0106182D01*
X0135628Y0106134D01*
X0135567Y0106089D01*
X0135503Y0106047D01*
X0135438Y0106008D01*
X0135371Y0105973D01*
X0135302Y0105942D01*
X0135231Y0105913D01*
X0135159Y0105889D01*
X0135086Y0105868D01*
X0135012Y0105851D01*
X0134937Y0105837D01*
X0134862Y0105828D01*
X0134786Y0105822D01*
X0134710Y0105820D01*
X0117710Y0105820D01*
X0117634Y0105822D01*
X0117558Y0105828D01*
X0117483Y0105837D01*
X0117408Y0105851D01*
X0117334Y0105868D01*
X0117261Y0105889D01*
X0117189Y0105913D01*
X0117118Y0105942D01*
X0117049Y0105973D01*
X0116982Y0106008D01*
X0116917Y0106047D01*
X0116853Y0106089D01*
X0116792Y0106134D01*
X0116733Y0106182D01*
X0116677Y0106233D01*
X0116623Y0106287D01*
X0116572Y0106343D01*
X0116524Y0106402D01*
X0116479Y0106463D01*
X0116437Y0106527D01*
X0116398Y0106592D01*
X0116363Y0106659D01*
X0116332Y0106728D01*
X0116303Y0106799D01*
X0116279Y0106871D01*
X0116258Y0106944D01*
X0116241Y0107018D01*
X0116227Y0107093D01*
X0116218Y0107168D01*
X0116212Y0107244D01*
X0116210Y0107320D01*
X0116210Y0111520D02*
X0116298Y0111522D01*
X0116387Y0111528D01*
X0116475Y0111538D01*
X0116562Y0111551D01*
X0116649Y0111569D01*
X0116735Y0111590D01*
X0116820Y0111615D01*
X0116903Y0111644D01*
X0116986Y0111677D01*
X0117066Y0111713D01*
X0117145Y0111752D01*
X0117223Y0111795D01*
X0117298Y0111842D01*
X0117371Y0111892D01*
X0117442Y0111945D01*
X0117511Y0112001D01*
X0117577Y0112060D01*
X0117640Y0112122D01*
X0117700Y0112186D01*
X0117758Y0112253D01*
X0117812Y0112323D01*
X0117864Y0112395D01*
X0117912Y0112469D01*
X0117957Y0112546D01*
X0117998Y0112624D01*
X0118036Y0112704D01*
X0118070Y0112785D01*
X0118101Y0112868D01*
X0118128Y0112953D01*
X0118151Y0113038D01*
X0118170Y0113124D01*
X0118186Y0113212D01*
X0118198Y0113299D01*
X0118206Y0113387D01*
X0118210Y0113476D01*
X0118210Y0113564D01*
X0118206Y0113653D01*
X0118198Y0113741D01*
X0118186Y0113828D01*
X0118170Y0113916D01*
X0118151Y0114002D01*
X0118128Y0114087D01*
X0118101Y0114172D01*
X0118070Y0114255D01*
X0118036Y0114336D01*
X0117998Y0114416D01*
X0117957Y0114494D01*
X0117912Y0114571D01*
X0117864Y0114645D01*
X0117812Y0114717D01*
X0117758Y0114787D01*
X0117700Y0114854D01*
X0117640Y0114918D01*
X0117577Y0114980D01*
X0117511Y0115039D01*
X0117442Y0115095D01*
X0117371Y0115148D01*
X0117298Y0115198D01*
X0117223Y0115245D01*
X0117145Y0115288D01*
X0117066Y0115327D01*
X0116986Y0115363D01*
X0116903Y0115396D01*
X0116820Y0115425D01*
X0116735Y0115450D01*
X0116649Y0115471D01*
X0116562Y0115489D01*
X0116475Y0115502D01*
X0116387Y0115512D01*
X0116298Y0115518D01*
X0116210Y0115520D01*
X0130210Y0078520D02*
X0130213Y0078790D01*
X0130223Y0079060D01*
X0130240Y0079329D01*
X0130263Y0079598D01*
X0130293Y0079867D01*
X0130329Y0080134D01*
X0130372Y0080401D01*
X0130421Y0080666D01*
X0130477Y0080930D01*
X0130540Y0081193D01*
X0130608Y0081454D01*
X0130684Y0081713D01*
X0130765Y0081970D01*
X0130853Y0082226D01*
X0130947Y0082479D01*
X0131047Y0082730D01*
X0131154Y0082978D01*
X0131266Y0083223D01*
X0131385Y0083466D01*
X0131509Y0083705D01*
X0131639Y0083942D01*
X0131775Y0084175D01*
X0131917Y0084405D01*
X0132064Y0084631D01*
X0132217Y0084854D01*
X0132375Y0085073D01*
X0132538Y0085288D01*
X0132707Y0085498D01*
X0132881Y0085705D01*
X0133060Y0085907D01*
X0133243Y0086105D01*
X0133432Y0086298D01*
X0133625Y0086487D01*
X0133823Y0086670D01*
X0134025Y0086849D01*
X0134232Y0087023D01*
X0134442Y0087192D01*
X0134657Y0087355D01*
X0134876Y0087513D01*
X0135099Y0087666D01*
X0135325Y0087813D01*
X0135555Y0087955D01*
X0135788Y0088091D01*
X0136025Y0088221D01*
X0136264Y0088345D01*
X0136507Y0088464D01*
X0136752Y0088576D01*
X0137000Y0088683D01*
X0137251Y0088783D01*
X0137504Y0088877D01*
X0137760Y0088965D01*
X0138017Y0089046D01*
X0138276Y0089122D01*
X0138537Y0089190D01*
X0138800Y0089253D01*
X0139064Y0089309D01*
X0139329Y0089358D01*
X0139596Y0089401D01*
X0139863Y0089437D01*
X0140132Y0089467D01*
X0140401Y0089490D01*
X0140670Y0089507D01*
X0140940Y0089517D01*
X0141210Y0089520D01*
X0141480Y0089517D01*
X0141750Y0089507D01*
X0142019Y0089490D01*
X0142288Y0089467D01*
X0142557Y0089437D01*
X0142824Y0089401D01*
X0143091Y0089358D01*
X0143356Y0089309D01*
X0143620Y0089253D01*
X0143883Y0089190D01*
X0144144Y0089122D01*
X0144403Y0089046D01*
X0144660Y0088965D01*
X0144916Y0088877D01*
X0145169Y0088783D01*
X0145420Y0088683D01*
X0145668Y0088576D01*
X0145913Y0088464D01*
X0146156Y0088345D01*
X0146395Y0088221D01*
X0146632Y0088091D01*
X0146865Y0087955D01*
X0147095Y0087813D01*
X0147321Y0087666D01*
X0147544Y0087513D01*
X0147763Y0087355D01*
X0147978Y0087192D01*
X0148188Y0087023D01*
X0148395Y0086849D01*
X0148597Y0086670D01*
X0148795Y0086487D01*
X0148988Y0086298D01*
X0149177Y0086105D01*
X0149360Y0085907D01*
X0149539Y0085705D01*
X0149713Y0085498D01*
X0149882Y0085288D01*
X0150045Y0085073D01*
X0150203Y0084854D01*
X0150356Y0084631D01*
X0150503Y0084405D01*
X0150645Y0084175D01*
X0150781Y0083942D01*
X0150911Y0083705D01*
X0151035Y0083466D01*
X0151154Y0083223D01*
X0151266Y0082978D01*
X0151373Y0082730D01*
X0151473Y0082479D01*
X0151567Y0082226D01*
X0151655Y0081970D01*
X0151736Y0081713D01*
X0151812Y0081454D01*
X0151880Y0081193D01*
X0151943Y0080930D01*
X0151999Y0080666D01*
X0152048Y0080401D01*
X0152091Y0080134D01*
X0152127Y0079867D01*
X0152157Y0079598D01*
X0152180Y0079329D01*
X0152197Y0079060D01*
X0152207Y0078790D01*
X0152210Y0078520D01*
X0152207Y0078250D01*
X0152197Y0077980D01*
X0152180Y0077711D01*
X0152157Y0077442D01*
X0152127Y0077173D01*
X0152091Y0076906D01*
X0152048Y0076639D01*
X0151999Y0076374D01*
X0151943Y0076110D01*
X0151880Y0075847D01*
X0151812Y0075586D01*
X0151736Y0075327D01*
X0151655Y0075070D01*
X0151567Y0074814D01*
X0151473Y0074561D01*
X0151373Y0074310D01*
X0151266Y0074062D01*
X0151154Y0073817D01*
X0151035Y0073574D01*
X0150911Y0073335D01*
X0150781Y0073098D01*
X0150645Y0072865D01*
X0150503Y0072635D01*
X0150356Y0072409D01*
X0150203Y0072186D01*
X0150045Y0071967D01*
X0149882Y0071752D01*
X0149713Y0071542D01*
X0149539Y0071335D01*
X0149360Y0071133D01*
X0149177Y0070935D01*
X0148988Y0070742D01*
X0148795Y0070553D01*
X0148597Y0070370D01*
X0148395Y0070191D01*
X0148188Y0070017D01*
X0147978Y0069848D01*
X0147763Y0069685D01*
X0147544Y0069527D01*
X0147321Y0069374D01*
X0147095Y0069227D01*
X0146865Y0069085D01*
X0146632Y0068949D01*
X0146395Y0068819D01*
X0146156Y0068695D01*
X0145913Y0068576D01*
X0145668Y0068464D01*
X0145420Y0068357D01*
X0145169Y0068257D01*
X0144916Y0068163D01*
X0144660Y0068075D01*
X0144403Y0067994D01*
X0144144Y0067918D01*
X0143883Y0067850D01*
X0143620Y0067787D01*
X0143356Y0067731D01*
X0143091Y0067682D01*
X0142824Y0067639D01*
X0142557Y0067603D01*
X0142288Y0067573D01*
X0142019Y0067550D01*
X0141750Y0067533D01*
X0141480Y0067523D01*
X0141210Y0067520D01*
X0140940Y0067523D01*
X0140670Y0067533D01*
X0140401Y0067550D01*
X0140132Y0067573D01*
X0139863Y0067603D01*
X0139596Y0067639D01*
X0139329Y0067682D01*
X0139064Y0067731D01*
X0138800Y0067787D01*
X0138537Y0067850D01*
X0138276Y0067918D01*
X0138017Y0067994D01*
X0137760Y0068075D01*
X0137504Y0068163D01*
X0137251Y0068257D01*
X0137000Y0068357D01*
X0136752Y0068464D01*
X0136507Y0068576D01*
X0136264Y0068695D01*
X0136025Y0068819D01*
X0135788Y0068949D01*
X0135555Y0069085D01*
X0135325Y0069227D01*
X0135099Y0069374D01*
X0134876Y0069527D01*
X0134657Y0069685D01*
X0134442Y0069848D01*
X0134232Y0070017D01*
X0134025Y0070191D01*
X0133823Y0070370D01*
X0133625Y0070553D01*
X0133432Y0070742D01*
X0133243Y0070935D01*
X0133060Y0071133D01*
X0132881Y0071335D01*
X0132707Y0071542D01*
X0132538Y0071752D01*
X0132375Y0071967D01*
X0132217Y0072186D01*
X0132064Y0072409D01*
X0131917Y0072635D01*
X0131775Y0072865D01*
X0131639Y0073098D01*
X0131509Y0073335D01*
X0131385Y0073574D01*
X0131266Y0073817D01*
X0131154Y0074062D01*
X0131047Y0074310D01*
X0130947Y0074561D01*
X0130853Y0074814D01*
X0130765Y0075070D01*
X0130684Y0075327D01*
X0130608Y0075586D01*
X0130540Y0075847D01*
X0130477Y0076110D01*
X0130421Y0076374D01*
X0130372Y0076639D01*
X0130329Y0076906D01*
X0130293Y0077173D01*
X0130263Y0077442D01*
X0130240Y0077711D01*
X0130223Y0077980D01*
X0130213Y0078250D01*
X0130210Y0078520D01*
X0146210Y0073520D02*
X0147710Y0073520D01*
X0147710Y0072020D01*
X0147710Y0073520D02*
X0147710Y0075020D01*
X0147710Y0073520D02*
X0149210Y0073520D01*
X0129710Y0025020D02*
X0129710Y0023520D01*
X0131210Y0023520D01*
X0129710Y0023520D02*
X0129710Y0022020D01*
X0129710Y0023520D02*
X0128210Y0023520D01*
X0125210Y0018520D02*
X0125213Y0018790D01*
X0125223Y0019060D01*
X0125240Y0019329D01*
X0125263Y0019598D01*
X0125293Y0019867D01*
X0125329Y0020134D01*
X0125372Y0020401D01*
X0125421Y0020666D01*
X0125477Y0020930D01*
X0125540Y0021193D01*
X0125608Y0021454D01*
X0125684Y0021713D01*
X0125765Y0021970D01*
X0125853Y0022226D01*
X0125947Y0022479D01*
X0126047Y0022730D01*
X0126154Y0022978D01*
X0126266Y0023223D01*
X0126385Y0023466D01*
X0126509Y0023705D01*
X0126639Y0023942D01*
X0126775Y0024175D01*
X0126917Y0024405D01*
X0127064Y0024631D01*
X0127217Y0024854D01*
X0127375Y0025073D01*
X0127538Y0025288D01*
X0127707Y0025498D01*
X0127881Y0025705D01*
X0128060Y0025907D01*
X0128243Y0026105D01*
X0128432Y0026298D01*
X0128625Y0026487D01*
X0128823Y0026670D01*
X0129025Y0026849D01*
X0129232Y0027023D01*
X0129442Y0027192D01*
X0129657Y0027355D01*
X0129876Y0027513D01*
X0130099Y0027666D01*
X0130325Y0027813D01*
X0130555Y0027955D01*
X0130788Y0028091D01*
X0131025Y0028221D01*
X0131264Y0028345D01*
X0131507Y0028464D01*
X0131752Y0028576D01*
X0132000Y0028683D01*
X0132251Y0028783D01*
X0132504Y0028877D01*
X0132760Y0028965D01*
X0133017Y0029046D01*
X0133276Y0029122D01*
X0133537Y0029190D01*
X0133800Y0029253D01*
X0134064Y0029309D01*
X0134329Y0029358D01*
X0134596Y0029401D01*
X0134863Y0029437D01*
X0135132Y0029467D01*
X0135401Y0029490D01*
X0135670Y0029507D01*
X0135940Y0029517D01*
X0136210Y0029520D01*
X0136480Y0029517D01*
X0136750Y0029507D01*
X0137019Y0029490D01*
X0137288Y0029467D01*
X0137557Y0029437D01*
X0137824Y0029401D01*
X0138091Y0029358D01*
X0138356Y0029309D01*
X0138620Y0029253D01*
X0138883Y0029190D01*
X0139144Y0029122D01*
X0139403Y0029046D01*
X0139660Y0028965D01*
X0139916Y0028877D01*
X0140169Y0028783D01*
X0140420Y0028683D01*
X0140668Y0028576D01*
X0140913Y0028464D01*
X0141156Y0028345D01*
X0141395Y0028221D01*
X0141632Y0028091D01*
X0141865Y0027955D01*
X0142095Y0027813D01*
X0142321Y0027666D01*
X0142544Y0027513D01*
X0142763Y0027355D01*
X0142978Y0027192D01*
X0143188Y0027023D01*
X0143395Y0026849D01*
X0143597Y0026670D01*
X0143795Y0026487D01*
X0143988Y0026298D01*
X0144177Y0026105D01*
X0144360Y0025907D01*
X0144539Y0025705D01*
X0144713Y0025498D01*
X0144882Y0025288D01*
X0145045Y0025073D01*
X0145203Y0024854D01*
X0145356Y0024631D01*
X0145503Y0024405D01*
X0145645Y0024175D01*
X0145781Y0023942D01*
X0145911Y0023705D01*
X0146035Y0023466D01*
X0146154Y0023223D01*
X0146266Y0022978D01*
X0146373Y0022730D01*
X0146473Y0022479D01*
X0146567Y0022226D01*
X0146655Y0021970D01*
X0146736Y0021713D01*
X0146812Y0021454D01*
X0146880Y0021193D01*
X0146943Y0020930D01*
X0146999Y0020666D01*
X0147048Y0020401D01*
X0147091Y0020134D01*
X0147127Y0019867D01*
X0147157Y0019598D01*
X0147180Y0019329D01*
X0147197Y0019060D01*
X0147207Y0018790D01*
X0147210Y0018520D01*
X0147207Y0018250D01*
X0147197Y0017980D01*
X0147180Y0017711D01*
X0147157Y0017442D01*
X0147127Y0017173D01*
X0147091Y0016906D01*
X0147048Y0016639D01*
X0146999Y0016374D01*
X0146943Y0016110D01*
X0146880Y0015847D01*
X0146812Y0015586D01*
X0146736Y0015327D01*
X0146655Y0015070D01*
X0146567Y0014814D01*
X0146473Y0014561D01*
X0146373Y0014310D01*
X0146266Y0014062D01*
X0146154Y0013817D01*
X0146035Y0013574D01*
X0145911Y0013335D01*
X0145781Y0013098D01*
X0145645Y0012865D01*
X0145503Y0012635D01*
X0145356Y0012409D01*
X0145203Y0012186D01*
X0145045Y0011967D01*
X0144882Y0011752D01*
X0144713Y0011542D01*
X0144539Y0011335D01*
X0144360Y0011133D01*
X0144177Y0010935D01*
X0143988Y0010742D01*
X0143795Y0010553D01*
X0143597Y0010370D01*
X0143395Y0010191D01*
X0143188Y0010017D01*
X0142978Y0009848D01*
X0142763Y0009685D01*
X0142544Y0009527D01*
X0142321Y0009374D01*
X0142095Y0009227D01*
X0141865Y0009085D01*
X0141632Y0008949D01*
X0141395Y0008819D01*
X0141156Y0008695D01*
X0140913Y0008576D01*
X0140668Y0008464D01*
X0140420Y0008357D01*
X0140169Y0008257D01*
X0139916Y0008163D01*
X0139660Y0008075D01*
X0139403Y0007994D01*
X0139144Y0007918D01*
X0138883Y0007850D01*
X0138620Y0007787D01*
X0138356Y0007731D01*
X0138091Y0007682D01*
X0137824Y0007639D01*
X0137557Y0007603D01*
X0137288Y0007573D01*
X0137019Y0007550D01*
X0136750Y0007533D01*
X0136480Y0007523D01*
X0136210Y0007520D01*
X0135940Y0007523D01*
X0135670Y0007533D01*
X0135401Y0007550D01*
X0135132Y0007573D01*
X0134863Y0007603D01*
X0134596Y0007639D01*
X0134329Y0007682D01*
X0134064Y0007731D01*
X0133800Y0007787D01*
X0133537Y0007850D01*
X0133276Y0007918D01*
X0133017Y0007994D01*
X0132760Y0008075D01*
X0132504Y0008163D01*
X0132251Y0008257D01*
X0132000Y0008357D01*
X0131752Y0008464D01*
X0131507Y0008576D01*
X0131264Y0008695D01*
X0131025Y0008819D01*
X0130788Y0008949D01*
X0130555Y0009085D01*
X0130325Y0009227D01*
X0130099Y0009374D01*
X0129876Y0009527D01*
X0129657Y0009685D01*
X0129442Y0009848D01*
X0129232Y0010017D01*
X0129025Y0010191D01*
X0128823Y0010370D01*
X0128625Y0010553D01*
X0128432Y0010742D01*
X0128243Y0010935D01*
X0128060Y0011133D01*
X0127881Y0011335D01*
X0127707Y0011542D01*
X0127538Y0011752D01*
X0127375Y0011967D01*
X0127217Y0012186D01*
X0127064Y0012409D01*
X0126917Y0012635D01*
X0126775Y0012865D01*
X0126639Y0013098D01*
X0126509Y0013335D01*
X0126385Y0013574D01*
X0126266Y0013817D01*
X0126154Y0014062D01*
X0126047Y0014310D01*
X0125947Y0014561D01*
X0125853Y0014814D01*
X0125765Y0015070D01*
X0125684Y0015327D01*
X0125608Y0015586D01*
X0125540Y0015847D01*
X0125477Y0016110D01*
X0125421Y0016374D01*
X0125372Y0016639D01*
X0125329Y0016906D01*
X0125293Y0017173D01*
X0125263Y0017442D01*
X0125240Y0017711D01*
X0125223Y0017980D01*
X0125213Y0018250D01*
X0125210Y0018520D01*
D12*
X0109832Y0004740D02*
X0109832Y0061433D01*
X0038966Y0061433D01*
X0038966Y0004740D01*
X0012588Y0004740D01*
X0012588Y0061433D01*
X0038966Y0061433D01*
X0016210Y0068520D02*
X0016210Y0128520D01*
X0088710Y0128520D01*
X0088710Y0068520D01*
X0016210Y0068520D01*
X0013710Y0068520D01*
X0013710Y0128520D01*
X0016210Y0128520D01*
X0033710Y0111020D02*
X0076210Y0111020D01*
X0066210Y0106020D02*
X0033710Y0106020D01*
X0033710Y0101020D02*
X0076210Y0101020D01*
X0076210Y0091020D02*
X0033710Y0091020D01*
X0033710Y0096020D02*
X0066210Y0096020D01*
X0066210Y0086020D02*
X0033710Y0086020D01*
X0109956Y0106270D02*
X0109956Y0107771D01*
X0109956Y0107020D02*
X0114460Y0107020D01*
X0114460Y0106270D02*
X0114460Y0107771D01*
X0113709Y0109339D02*
X0114460Y0110090D01*
X0114460Y0111591D01*
X0113709Y0112342D01*
X0114460Y0113943D02*
X0114460Y0116945D01*
X0114460Y0115444D02*
X0109956Y0115444D01*
X0111457Y0113943D01*
X0110707Y0112342D02*
X0109956Y0111591D01*
X0109956Y0110090D01*
X0110707Y0109339D01*
X0113709Y0109339D01*
X0122503Y0072274D02*
X0121752Y0071523D01*
X0121752Y0068520D01*
X0122503Y0067770D01*
X0124004Y0067770D01*
X0124755Y0068520D01*
X0126356Y0067770D02*
X0129359Y0070772D01*
X0129359Y0071523D01*
X0128608Y0072274D01*
X0127107Y0072274D01*
X0126356Y0071523D01*
X0124755Y0071523D02*
X0124004Y0072274D01*
X0122503Y0072274D01*
X0126356Y0067770D02*
X0129359Y0067770D01*
X0127982Y0055843D02*
X0134281Y0055843D01*
X0127982Y0055843D02*
X0127982Y0041197D01*
X0129005Y0041197D01*
X0146960Y0028523D02*
X0146960Y0025520D01*
X0147711Y0024770D01*
X0149212Y0024770D01*
X0149963Y0025520D01*
X0151564Y0024770D02*
X0154566Y0024770D01*
X0153065Y0024770D02*
X0153065Y0029274D01*
X0151564Y0027772D01*
X0149963Y0028523D02*
X0149212Y0029274D01*
X0147711Y0029274D01*
X0146960Y0028523D01*
X0153454Y0041197D02*
X0154438Y0041197D01*
X0154438Y0055843D01*
X0148572Y0055843D01*
X0109832Y0004740D02*
X0038966Y0004740D01*
D13*
X0116210Y0107220D02*
X0136210Y0107220D01*
D14*
X0006699Y0003956D02*
X0002863Y0003956D01*
X0002863Y0007025D02*
X0006699Y0007025D01*
X0007467Y0006258D01*
X0007467Y0004723D01*
X0006699Y0003956D01*
X0007467Y0008560D02*
X0007467Y0011629D01*
X0007467Y0010094D02*
X0002863Y0010094D01*
X0004397Y0008560D01*
X0056406Y0018720D02*
X0056406Y0021022D01*
X0057173Y0021789D01*
X0058708Y0021789D01*
X0059475Y0021022D01*
X0059475Y0018720D01*
X0059475Y0020254D02*
X0061010Y0021789D01*
X0061010Y0023324D02*
X0057941Y0026393D01*
X0057173Y0026393D01*
X0056406Y0025626D01*
X0056406Y0024091D01*
X0057173Y0023324D01*
X0061010Y0023324D02*
X0061010Y0026393D01*
X0061010Y0018720D02*
X0056406Y0018720D01*
X0086406Y0019512D02*
X0086406Y0021814D01*
X0087173Y0022581D01*
X0088708Y0022581D01*
X0089475Y0021814D01*
X0089475Y0019512D01*
X0089475Y0021046D02*
X0091010Y0022581D01*
X0090243Y0024116D02*
X0091010Y0024883D01*
X0091010Y0026418D01*
X0090243Y0027185D01*
X0088708Y0027185D01*
X0087941Y0026418D01*
X0087941Y0025650D01*
X0088708Y0024116D01*
X0086406Y0024116D01*
X0086406Y0027185D01*
X0086406Y0019512D02*
X0091010Y0019512D01*
X0066583Y0051220D02*
X0063514Y0051220D01*
X0065049Y0051220D02*
X0065049Y0055824D01*
X0063514Y0054289D01*
X0061979Y0055056D02*
X0061979Y0051987D01*
X0061212Y0051220D01*
X0059677Y0051220D01*
X0058910Y0051987D01*
X0058910Y0055056D01*
X0059677Y0055824D01*
X0061212Y0055824D01*
X0061979Y0055056D01*
X0060445Y0052754D02*
X0061979Y0051220D01*
X0073365Y0063720D02*
X0074900Y0063720D01*
X0075667Y0064487D01*
X0075667Y0068324D01*
X0077202Y0067556D02*
X0077202Y0066789D01*
X0077969Y0066022D01*
X0079504Y0066022D01*
X0080271Y0065254D01*
X0080271Y0064487D01*
X0079504Y0063720D01*
X0077969Y0063720D01*
X0077202Y0064487D01*
X0078737Y0062952D02*
X0078737Y0069091D01*
X0079504Y0068324D02*
X0077969Y0068324D01*
X0077202Y0067556D01*
X0079504Y0068324D02*
X0080271Y0067556D01*
X0081806Y0067556D02*
X0082573Y0068324D01*
X0084108Y0068324D01*
X0084875Y0067556D01*
X0084875Y0066789D01*
X0081806Y0063720D01*
X0084875Y0063720D01*
X0073365Y0063720D02*
X0072598Y0064487D01*
X0072598Y0068324D01*
X0106410Y0073720D02*
X0106410Y0078324D01*
X0108712Y0078324D01*
X0109479Y0077556D01*
X0109479Y0076022D01*
X0108712Y0075254D01*
X0106410Y0075254D01*
X0107945Y0075254D02*
X0109479Y0073720D01*
X0111014Y0074487D02*
X0111014Y0076022D01*
X0113316Y0076022D01*
X0114083Y0075254D01*
X0114083Y0074487D01*
X0113316Y0073720D01*
X0111781Y0073720D01*
X0111014Y0074487D01*
X0111014Y0076022D02*
X0112549Y0077556D01*
X0114083Y0078324D01*
X0117202Y0078720D02*
X0117202Y0083324D01*
X0119504Y0083324D01*
X0120271Y0082556D01*
X0120271Y0081022D01*
X0119504Y0080254D01*
X0117202Y0080254D01*
X0118737Y0080254D02*
X0120271Y0078720D01*
X0121806Y0078720D02*
X0124875Y0078720D01*
X0123341Y0078720D02*
X0123341Y0083324D01*
X0121806Y0081789D01*
X0126857Y0071080D02*
X0126857Y0067236D01*
X0127625Y0066468D01*
X0129163Y0066468D01*
X0129932Y0067236D01*
X0129932Y0071080D01*
X0131469Y0070312D02*
X0132238Y0071080D01*
X0133775Y0071080D01*
X0134544Y0070312D01*
X0134544Y0069543D01*
X0131469Y0066468D01*
X0134544Y0066468D01*
X0129108Y0128720D02*
X0129108Y0133324D01*
X0126806Y0131022D01*
X0129875Y0131022D01*
X0125271Y0131022D02*
X0124504Y0130254D01*
X0122202Y0130254D01*
X0122202Y0128720D02*
X0122202Y0133324D01*
X0124504Y0133324D01*
X0125271Y0132556D01*
X0125271Y0131022D01*
X0123737Y0130254D02*
X0125271Y0128720D01*
D15*
X0131800Y0031303D02*
X0131802Y0031342D01*
X0131808Y0031381D01*
X0131818Y0031419D01*
X0131831Y0031456D01*
X0131848Y0031491D01*
X0131868Y0031525D01*
X0131892Y0031556D01*
X0131919Y0031585D01*
X0131948Y0031611D01*
X0131980Y0031634D01*
X0132014Y0031654D01*
X0132050Y0031670D01*
X0132087Y0031682D01*
X0132126Y0031691D01*
X0132165Y0031696D01*
X0132204Y0031697D01*
X0132243Y0031694D01*
X0132282Y0031687D01*
X0132319Y0031676D01*
X0132356Y0031662D01*
X0132391Y0031644D01*
X0132424Y0031623D01*
X0132455Y0031598D01*
X0132483Y0031571D01*
X0132508Y0031541D01*
X0132530Y0031508D01*
X0132549Y0031474D01*
X0132564Y0031438D01*
X0132576Y0031400D01*
X0132584Y0031362D01*
X0132588Y0031323D01*
X0132588Y0031283D01*
X0132584Y0031244D01*
X0132576Y0031206D01*
X0132564Y0031168D01*
X0132549Y0031132D01*
X0132530Y0031098D01*
X0132508Y0031065D01*
X0132483Y0031035D01*
X0132455Y0031008D01*
X0132424Y0030983D01*
X0132391Y0030962D01*
X0132356Y0030944D01*
X0132319Y0030930D01*
X0132282Y0030919D01*
X0132243Y0030912D01*
X0132204Y0030909D01*
X0132165Y0030910D01*
X0132126Y0030915D01*
X0132087Y0030924D01*
X0132050Y0030936D01*
X0132014Y0030952D01*
X0131980Y0030972D01*
X0131948Y0030995D01*
X0131919Y0031021D01*
X0131892Y0031050D01*
X0131868Y0031081D01*
X0131848Y0031115D01*
X0131831Y0031150D01*
X0131818Y0031187D01*
X0131808Y0031225D01*
X0131802Y0031264D01*
X0131800Y0031303D01*
X0093533Y0001787D02*
X0093535Y0001826D01*
X0093541Y0001865D01*
X0093551Y0001903D01*
X0093564Y0001940D01*
X0093581Y0001975D01*
X0093601Y0002009D01*
X0093625Y0002040D01*
X0093652Y0002069D01*
X0093681Y0002095D01*
X0093713Y0002118D01*
X0093747Y0002138D01*
X0093783Y0002154D01*
X0093820Y0002166D01*
X0093859Y0002175D01*
X0093898Y0002180D01*
X0093937Y0002181D01*
X0093976Y0002178D01*
X0094015Y0002171D01*
X0094052Y0002160D01*
X0094089Y0002146D01*
X0094124Y0002128D01*
X0094157Y0002107D01*
X0094188Y0002082D01*
X0094216Y0002055D01*
X0094241Y0002025D01*
X0094263Y0001992D01*
X0094282Y0001958D01*
X0094297Y0001922D01*
X0094309Y0001884D01*
X0094317Y0001846D01*
X0094321Y0001807D01*
X0094321Y0001767D01*
X0094317Y0001728D01*
X0094309Y0001690D01*
X0094297Y0001652D01*
X0094282Y0001616D01*
X0094263Y0001582D01*
X0094241Y0001549D01*
X0094216Y0001519D01*
X0094188Y0001492D01*
X0094157Y0001467D01*
X0094124Y0001446D01*
X0094089Y0001428D01*
X0094052Y0001414D01*
X0094015Y0001403D01*
X0093976Y0001396D01*
X0093937Y0001393D01*
X0093898Y0001394D01*
X0093859Y0001399D01*
X0093820Y0001408D01*
X0093783Y0001420D01*
X0093747Y0001436D01*
X0093713Y0001456D01*
X0093681Y0001479D01*
X0093652Y0001505D01*
X0093625Y0001534D01*
X0093601Y0001565D01*
X0093581Y0001599D01*
X0093564Y0001634D01*
X0093551Y0001671D01*
X0093541Y0001709D01*
X0093535Y0001748D01*
X0093533Y0001787D01*
M02*
