G75*
%MOIN*%
%OFA0B0*%
%FSLAX25Y25*%
%IPPOS*%
%LPD*%
%AMOC8*
5,1,8,0,0,1.08239X$1,22.5*
%
%ADD10C,0.00600*%
%ADD11R,0.35000X0.25000*%
%ADD12OC8,0.06300*%
%ADD13C,0.06300*%
%ADD14R,0.02600X0.08000*%
%ADD15R,0.03937X0.05512*%
%ADD16R,0.06299X0.07874*%
%ADD17R,0.07874X0.06299*%
%ADD18C,0.05150*%
%ADD19C,0.05906*%
%ADD20R,0.05906X0.05906*%
%ADD21C,0.00549*%
%ADD22C,0.00774*%
%ADD23C,0.01600*%
%ADD24R,0.03962X0.03962*%
%ADD25C,0.04000*%
%ADD26C,0.03962*%
D10*
X0091505Y0078442D02*
X0091505Y0080577D01*
X0092572Y0081645D01*
X0096842Y0077374D01*
X0097910Y0078442D01*
X0097910Y0080577D01*
X0096842Y0081645D01*
X0092572Y0081645D01*
X0091505Y0078442D02*
X0092572Y0077374D01*
X0096842Y0077374D01*
X0097910Y0087374D02*
X0093640Y0087374D01*
X0091505Y0089509D01*
X0093640Y0091645D01*
X0097910Y0091645D01*
X0094707Y0091645D02*
X0094707Y0087374D01*
X0094707Y0097374D02*
X0094707Y0100577D01*
X0095775Y0101645D01*
X0096842Y0101645D01*
X0097910Y0100577D01*
X0097910Y0097374D01*
X0091505Y0097374D01*
X0091505Y0100577D01*
X0092572Y0101645D01*
X0093640Y0101645D01*
X0094707Y0100577D01*
X0094707Y0105929D02*
X0091505Y0105929D01*
X0091505Y0110199D01*
X0091505Y0112374D02*
X0095775Y0112374D01*
X0097910Y0114509D01*
X0095775Y0116644D01*
X0091505Y0116644D01*
X0094707Y0110199D02*
X0096842Y0110199D01*
X0097910Y0109131D01*
X0097910Y0106996D01*
X0096842Y0105929D01*
X0094707Y0105929D02*
X0093640Y0108064D01*
X0093640Y0109131D01*
X0094707Y0110199D01*
X0066562Y0134887D02*
X0065495Y0133820D01*
X0063360Y0133820D01*
X0062292Y0134887D01*
X0062292Y0137022D02*
X0064427Y0138090D01*
X0065495Y0138090D01*
X0066562Y0137022D01*
X0066562Y0134887D01*
X0062292Y0137022D02*
X0062292Y0140225D01*
X0066562Y0140225D01*
X0066562Y0144320D02*
X0062292Y0144320D01*
X0064427Y0144320D02*
X0064427Y0150725D01*
X0062292Y0148590D01*
X0060117Y0149658D02*
X0060117Y0145387D01*
X0059049Y0144320D01*
X0056914Y0144320D01*
X0055846Y0145387D01*
X0060117Y0149658D01*
X0059049Y0150725D01*
X0056914Y0150725D01*
X0055846Y0149658D01*
X0055846Y0145387D01*
X0053671Y0147522D02*
X0052604Y0146455D01*
X0049401Y0146455D01*
X0047226Y0146455D02*
X0047226Y0145387D01*
X0046158Y0144320D01*
X0044023Y0144320D01*
X0042955Y0145387D01*
X0044023Y0147522D02*
X0046158Y0147522D01*
X0047226Y0146455D01*
X0049401Y0144320D02*
X0049401Y0150725D01*
X0052604Y0150725D01*
X0053671Y0149658D01*
X0053671Y0147522D01*
X0047226Y0149658D02*
X0046158Y0150725D01*
X0044023Y0150725D01*
X0042955Y0149658D01*
X0042955Y0148590D01*
X0044023Y0147522D01*
X0040780Y0144320D02*
X0036510Y0144320D01*
X0036510Y0150725D01*
X0040780Y0150725D01*
X0038645Y0147522D02*
X0036510Y0147522D01*
X0036510Y0140225D02*
X0039713Y0140225D01*
X0040780Y0139158D01*
X0040780Y0137022D01*
X0039713Y0135955D01*
X0036510Y0135955D01*
X0038645Y0135955D02*
X0040780Y0133820D01*
X0042955Y0134887D02*
X0044023Y0133820D01*
X0046158Y0133820D01*
X0047226Y0134887D01*
X0047226Y0135955D01*
X0046158Y0137022D01*
X0044023Y0137022D01*
X0042955Y0138090D01*
X0042955Y0139158D01*
X0044023Y0140225D01*
X0046158Y0140225D01*
X0047226Y0139158D01*
X0049401Y0137022D02*
X0053671Y0137022D01*
X0055846Y0135955D02*
X0055846Y0134887D01*
X0056914Y0133820D01*
X0059049Y0133820D01*
X0060117Y0134887D01*
X0060117Y0135955D01*
X0059049Y0137022D01*
X0056914Y0137022D01*
X0055846Y0138090D01*
X0055846Y0139158D01*
X0056914Y0140225D01*
X0059049Y0140225D01*
X0060117Y0139158D01*
X0060117Y0138090D01*
X0059049Y0137022D01*
X0056914Y0137022D02*
X0055846Y0135955D01*
X0052604Y0133820D02*
X0052604Y0140225D01*
X0049401Y0137022D01*
X0036510Y0133820D02*
X0036510Y0140225D01*
D11*
X0143710Y0056020D03*
D12*
X0136210Y0078520D03*
X0141210Y0018520D03*
D13*
X0131210Y0018520D03*
X0146210Y0078520D03*
D14*
X0133710Y0101420D03*
X0128710Y0101420D03*
X0123710Y0101420D03*
X0118710Y0101420D03*
X0118710Y0125620D03*
X0123710Y0125620D03*
X0128710Y0125620D03*
X0133710Y0125620D03*
D15*
X0066210Y0047850D03*
X0069950Y0039189D03*
X0062470Y0039189D03*
D16*
X0105698Y0068520D03*
X0116722Y0068520D03*
X0115698Y0088520D03*
X0126722Y0088520D03*
X0131722Y0138520D03*
X0120698Y0138520D03*
D17*
X0081210Y0029031D03*
X0081210Y0018008D03*
X0066210Y0018008D03*
X0066210Y0029031D03*
D18*
X0081210Y0081020D03*
X0081210Y0091020D03*
X0081210Y0101020D03*
X0071210Y0106020D03*
X0071210Y0116020D03*
X0081210Y0111020D03*
X0071210Y0096020D03*
X0071210Y0086020D03*
D19*
X0093927Y0048520D03*
X0103927Y0048520D03*
X0103927Y0038520D03*
X0103927Y0028520D03*
X0093927Y0028520D03*
X0093927Y0038520D03*
X0103927Y0018520D03*
D20*
X0093927Y0018520D03*
D21*
X0130638Y0033046D02*
X0133750Y0033046D01*
X0130638Y0033046D02*
X0130638Y0037654D01*
X0133750Y0037654D01*
X0133750Y0033046D01*
X0133750Y0033594D02*
X0130638Y0033594D01*
X0130638Y0034142D02*
X0133750Y0034142D01*
X0133750Y0034690D02*
X0130638Y0034690D01*
X0130638Y0035238D02*
X0133750Y0035238D01*
X0133750Y0035786D02*
X0130638Y0035786D01*
X0130638Y0036334D02*
X0133750Y0036334D01*
X0133750Y0036882D02*
X0130638Y0036882D01*
X0130638Y0037430D02*
X0133750Y0037430D01*
X0139654Y0033046D02*
X0142766Y0033046D01*
X0139654Y0033046D02*
X0139654Y0037654D01*
X0142766Y0037654D01*
X0142766Y0033046D01*
X0142766Y0033594D02*
X0139654Y0033594D01*
X0139654Y0034142D02*
X0142766Y0034142D01*
X0142766Y0034690D02*
X0139654Y0034690D01*
X0139654Y0035238D02*
X0142766Y0035238D01*
X0142766Y0035786D02*
X0139654Y0035786D01*
X0139654Y0036334D02*
X0142766Y0036334D01*
X0142766Y0036882D02*
X0139654Y0036882D01*
X0139654Y0037430D02*
X0142766Y0037430D01*
X0148670Y0033046D02*
X0151782Y0033046D01*
X0148670Y0033046D02*
X0148670Y0037654D01*
X0151782Y0037654D01*
X0151782Y0033046D01*
X0151782Y0033594D02*
X0148670Y0033594D01*
X0148670Y0034142D02*
X0151782Y0034142D01*
X0151782Y0034690D02*
X0148670Y0034690D01*
X0148670Y0035238D02*
X0151782Y0035238D01*
X0151782Y0035786D02*
X0148670Y0035786D01*
X0148670Y0036334D02*
X0151782Y0036334D01*
X0151782Y0036882D02*
X0148670Y0036882D01*
X0148670Y0037430D02*
X0151782Y0037430D01*
D22*
X0147201Y0059498D02*
X0135219Y0059498D01*
X0135219Y0063880D01*
X0147201Y0063880D01*
X0147201Y0059498D01*
X0147201Y0060271D02*
X0135219Y0060271D01*
X0135219Y0061044D02*
X0147201Y0061044D01*
X0147201Y0061817D02*
X0135219Y0061817D01*
X0135219Y0062590D02*
X0147201Y0062590D01*
X0147201Y0063363D02*
X0135219Y0063363D01*
D23*
X0041210Y0063520D02*
X0041210Y0008320D01*
X0081036Y0008320D01*
X0077988Y0011367D01*
X0077410Y0012764D01*
X0077410Y0013058D01*
X0076527Y0013058D01*
X0075473Y0014113D01*
X0075473Y0014208D01*
X0071947Y0014208D01*
X0071947Y0014113D01*
X0070893Y0013058D01*
X0061527Y0013058D01*
X0060473Y0014113D01*
X0060473Y0014412D01*
X0059569Y0014786D01*
X0054057Y0020298D01*
X0052988Y0021367D01*
X0052410Y0022764D01*
X0052410Y0039276D01*
X0052988Y0040672D01*
X0054057Y0041741D01*
X0055454Y0042320D01*
X0058701Y0042320D01*
X0058701Y0042690D01*
X0059756Y0043745D01*
X0063045Y0043745D01*
X0062441Y0044349D01*
X0062441Y0051352D01*
X0063496Y0052406D01*
X0068924Y0052406D01*
X0069978Y0051352D01*
X0069978Y0050965D01*
X0092812Y0073799D01*
X0088759Y0073799D01*
X0088525Y0073830D01*
X0088297Y0073891D01*
X0088079Y0073981D01*
X0087874Y0074099D01*
X0087687Y0074243D01*
X0087520Y0074410D01*
X0087377Y0074597D01*
X0087259Y0074801D01*
X0087169Y0075019D01*
X0087107Y0075247D01*
X0087077Y0075481D01*
X0087077Y0120971D01*
X0087107Y0121205D01*
X0087169Y0121433D01*
X0087259Y0121651D01*
X0087377Y0121855D01*
X0087520Y0122042D01*
X0087687Y0122209D01*
X0087874Y0122353D01*
X0088079Y0122471D01*
X0088297Y0122561D01*
X0088525Y0122622D01*
X0088759Y0122653D01*
X0100661Y0122653D01*
X0100895Y0122622D01*
X0101123Y0122561D01*
X0101341Y0122471D01*
X0101545Y0122353D01*
X0101733Y0122209D01*
X0101899Y0122042D01*
X0102043Y0121855D01*
X0102161Y0121651D01*
X0102251Y0121433D01*
X0102312Y0121205D01*
X0102343Y0120971D01*
X0102343Y0083330D01*
X0110749Y0091735D01*
X0110749Y0093202D01*
X0111803Y0094257D01*
X0113098Y0094257D01*
X0113098Y0098925D01*
X0113494Y0099881D01*
X0115610Y0101997D01*
X0115610Y0106165D01*
X0116664Y0107220D01*
X0120756Y0107220D01*
X0121210Y0106765D01*
X0121664Y0107220D01*
X0125756Y0107220D01*
X0126210Y0106765D01*
X0126664Y0107220D01*
X0130756Y0107220D01*
X0131210Y0106765D01*
X0131664Y0107220D01*
X0135756Y0107220D01*
X0136810Y0106165D01*
X0136810Y0104020D01*
X0138827Y0104020D01*
X0139783Y0103624D01*
X0141106Y0102301D01*
X0143937Y0102301D01*
X0144991Y0101246D01*
X0144991Y0095793D01*
X0143937Y0094739D01*
X0138483Y0094739D01*
X0137429Y0095793D01*
X0137429Y0098624D01*
X0137233Y0098820D01*
X0136810Y0098820D01*
X0136810Y0096674D01*
X0135756Y0095620D01*
X0131664Y0095620D01*
X0131210Y0096074D01*
X0130756Y0095620D01*
X0126664Y0095620D01*
X0126310Y0095974D01*
X0126310Y0095502D01*
X0125914Y0094547D01*
X0125624Y0094257D01*
X0130617Y0094257D01*
X0131671Y0093202D01*
X0131671Y0091120D01*
X0146727Y0091120D01*
X0147683Y0090724D01*
X0148414Y0089992D01*
X0148810Y0089037D01*
X0148810Y0082801D01*
X0149014Y0082716D01*
X0150406Y0081324D01*
X0151160Y0079504D01*
X0151160Y0077535D01*
X0150406Y0075716D01*
X0149014Y0074323D01*
X0147195Y0073570D01*
X0145225Y0073570D01*
X0143406Y0074323D01*
X0142014Y0075716D01*
X0141260Y0077535D01*
X0141260Y0079504D01*
X0142014Y0081324D01*
X0143406Y0082716D01*
X0143610Y0082801D01*
X0143610Y0085920D01*
X0131671Y0085920D01*
X0131671Y0083837D01*
X0130617Y0082783D01*
X0123810Y0082783D01*
X0123810Y0078002D01*
X0123414Y0077047D01*
X0122683Y0076316D01*
X0121727Y0075920D01*
X0112287Y0075920D01*
X0110109Y0073741D01*
X0110648Y0073202D01*
X0110648Y0063837D01*
X0109593Y0062783D01*
X0101803Y0062783D01*
X0100749Y0063837D01*
X0100749Y0065920D01*
X0098957Y0065920D01*
X0098352Y0065314D01*
X0096962Y0064739D01*
X0095458Y0064739D01*
X0094068Y0065314D01*
X0093005Y0066378D01*
X0092929Y0066561D01*
X0072013Y0045646D01*
X0071058Y0045250D01*
X0069978Y0045250D01*
X0069978Y0044349D01*
X0069374Y0043745D01*
X0072664Y0043745D01*
X0073719Y0042690D01*
X0073719Y0041789D01*
X0080802Y0041789D01*
X0089006Y0049992D01*
X0089665Y0050652D01*
X0089897Y0051212D01*
X0091234Y0052549D01*
X0092981Y0053272D01*
X0094872Y0053272D01*
X0096619Y0052549D01*
X0097956Y0051212D01*
X0098679Y0049465D01*
X0098679Y0047574D01*
X0097956Y0045827D01*
X0096619Y0044490D01*
X0094872Y0043767D01*
X0092981Y0043767D01*
X0091234Y0044490D01*
X0091046Y0044679D01*
X0087487Y0041120D01*
X0089859Y0041120D01*
X0089897Y0041212D01*
X0091234Y0042549D01*
X0092981Y0043272D01*
X0094872Y0043272D01*
X0096619Y0042549D01*
X0097956Y0041212D01*
X0098679Y0039465D01*
X0098679Y0037574D01*
X0097956Y0035827D01*
X0096619Y0034490D01*
X0094872Y0033767D01*
X0092981Y0033767D01*
X0091234Y0034490D01*
X0089897Y0035827D01*
X0089859Y0035920D01*
X0087287Y0035920D01*
X0085348Y0033981D01*
X0085893Y0033981D01*
X0086947Y0032927D01*
X0086947Y0025136D01*
X0085893Y0024082D01*
X0076527Y0024082D01*
X0075473Y0025136D01*
X0075473Y0032927D01*
X0076527Y0033981D01*
X0078610Y0033981D01*
X0078610Y0034037D01*
X0079006Y0034992D01*
X0080602Y0036589D01*
X0073719Y0036589D01*
X0073719Y0035687D01*
X0072664Y0034633D01*
X0071000Y0034633D01*
X0070348Y0033981D01*
X0070893Y0033981D01*
X0071947Y0032927D01*
X0071947Y0025136D01*
X0070893Y0024082D01*
X0061527Y0024082D01*
X0060473Y0025136D01*
X0060473Y0032927D01*
X0061527Y0033981D01*
X0063610Y0033981D01*
X0063610Y0034037D01*
X0063857Y0034633D01*
X0060010Y0034633D01*
X0060010Y0025094D01*
X0062146Y0022957D01*
X0070893Y0022957D01*
X0071947Y0021903D01*
X0071947Y0021808D01*
X0075473Y0021808D01*
X0075473Y0021903D01*
X0076527Y0022957D01*
X0085893Y0022957D01*
X0086947Y0021903D01*
X0086947Y0014113D01*
X0086469Y0013635D01*
X0087784Y0012320D01*
X0107410Y0012320D01*
X0107410Y0015282D01*
X0106619Y0014490D01*
X0104872Y0013767D01*
X0102981Y0013767D01*
X0101234Y0014490D01*
X0099897Y0015827D01*
X0099174Y0017574D01*
X0099174Y0019465D01*
X0099897Y0021212D01*
X0101234Y0022549D01*
X0102981Y0023272D01*
X0104872Y0023272D01*
X0106619Y0022549D01*
X0107410Y0021758D01*
X0107410Y0021946D01*
X0105379Y0023977D01*
X0104872Y0023767D01*
X0102981Y0023767D01*
X0101234Y0024490D01*
X0099897Y0025827D01*
X0099174Y0027574D01*
X0099174Y0029465D01*
X0099897Y0031212D01*
X0100127Y0031441D01*
X0100127Y0035598D01*
X0099897Y0035827D01*
X0099174Y0037574D01*
X0099174Y0039465D01*
X0099897Y0041212D01*
X0100127Y0041441D01*
X0100127Y0045598D01*
X0099897Y0045827D01*
X0099174Y0047574D01*
X0099174Y0049465D01*
X0099897Y0051212D01*
X0101234Y0052549D01*
X0102981Y0053272D01*
X0103305Y0053272D01*
X0112821Y0062788D01*
X0111772Y0063837D01*
X0111772Y0073202D01*
X0112827Y0074257D01*
X0120617Y0074257D01*
X0121354Y0073520D01*
X0161331Y0073520D01*
X0161331Y0133660D01*
X0160494Y0133177D01*
X0157671Y0132420D01*
X0154749Y0132420D01*
X0151926Y0133177D01*
X0149395Y0134638D01*
X0147328Y0136705D01*
X0145867Y0139236D01*
X0145111Y0142058D01*
X0145111Y0144981D01*
X0145764Y0147420D01*
X0072603Y0147420D01*
X0072603Y0131068D01*
X0072572Y0130834D01*
X0072511Y0130607D01*
X0072421Y0130389D01*
X0072303Y0130184D01*
X0072159Y0129997D01*
X0071992Y0129830D01*
X0071805Y0129686D01*
X0071601Y0129569D01*
X0071383Y0129478D01*
X0071155Y0129417D01*
X0070921Y0129386D01*
X0053679Y0129386D01*
X0055170Y0127895D01*
X0056644Y0125342D01*
X0057408Y0122494D01*
X0057408Y0119545D01*
X0056644Y0116698D01*
X0055170Y0114144D01*
X0053085Y0112059D01*
X0050532Y0110585D01*
X0047684Y0109822D01*
X0044736Y0109822D01*
X0041888Y0110585D01*
X0039334Y0112059D01*
X0037250Y0114144D01*
X0035775Y0116698D01*
X0035012Y0119545D01*
X0035012Y0122494D01*
X0035775Y0125342D01*
X0037250Y0127895D01*
X0038741Y0129386D01*
X0033759Y0129386D01*
X0033525Y0129417D01*
X0033297Y0129478D01*
X0033079Y0129569D01*
X0032874Y0129686D01*
X0032687Y0129830D01*
X0032520Y0129997D01*
X0032377Y0130184D01*
X0032259Y0130389D01*
X0032169Y0130607D01*
X0032107Y0130834D01*
X0032077Y0131068D01*
X0032077Y0141191D01*
X0031553Y0139236D01*
X0030092Y0136705D01*
X0028025Y0134638D01*
X0025494Y0133177D01*
X0022671Y0132420D01*
X0019749Y0132420D01*
X0016926Y0133177D01*
X0016010Y0133706D01*
X0016010Y0063520D01*
X0041210Y0063520D01*
X0041210Y0062665D02*
X0081678Y0062665D01*
X0083276Y0064263D02*
X0016010Y0064263D01*
X0016010Y0065862D02*
X0041409Y0065862D01*
X0041888Y0065585D02*
X0039334Y0067059D01*
X0037250Y0069144D01*
X0035775Y0071698D01*
X0035012Y0074545D01*
X0035012Y0077494D01*
X0035775Y0080342D01*
X0037250Y0082895D01*
X0039334Y0084980D01*
X0041888Y0086454D01*
X0044736Y0087217D01*
X0047684Y0087217D01*
X0050532Y0086454D01*
X0053085Y0084980D01*
X0055170Y0082895D01*
X0056644Y0080342D01*
X0057408Y0077494D01*
X0057408Y0074545D01*
X0056644Y0071698D01*
X0055170Y0069144D01*
X0053085Y0067059D01*
X0050532Y0065585D01*
X0047684Y0064822D01*
X0044736Y0064822D01*
X0041888Y0065585D01*
X0038934Y0067460D02*
X0016010Y0067460D01*
X0016010Y0069059D02*
X0037335Y0069059D01*
X0036376Y0070657D02*
X0016010Y0070657D01*
X0016010Y0072256D02*
X0035626Y0072256D01*
X0035198Y0073854D02*
X0016010Y0073854D01*
X0016010Y0075453D02*
X0035012Y0075453D01*
X0035012Y0077051D02*
X0016010Y0077051D01*
X0016010Y0078650D02*
X0035322Y0078650D01*
X0035750Y0080248D02*
X0016010Y0080248D01*
X0016010Y0081847D02*
X0036644Y0081847D01*
X0037800Y0083445D02*
X0016010Y0083445D01*
X0016010Y0085044D02*
X0039445Y0085044D01*
X0042590Y0086642D02*
X0016010Y0086642D01*
X0016010Y0088241D02*
X0067432Y0088241D01*
X0067468Y0088313D02*
X0067156Y0087699D01*
X0066943Y0087044D01*
X0066835Y0086364D01*
X0066835Y0086020D01*
X0071210Y0086020D01*
X0071210Y0086020D01*
X0071210Y0090394D01*
X0071554Y0090394D01*
X0072234Y0090287D01*
X0072889Y0090074D01*
X0073503Y0089761D01*
X0074060Y0089357D01*
X0074547Y0088870D01*
X0074952Y0088313D01*
X0075264Y0087699D01*
X0075477Y0087044D01*
X0075585Y0086364D01*
X0075585Y0086020D01*
X0071210Y0086020D01*
X0071210Y0090394D01*
X0070866Y0090394D01*
X0070186Y0090287D01*
X0069531Y0090074D01*
X0068917Y0089761D01*
X0068360Y0089357D01*
X0067873Y0088870D01*
X0067468Y0088313D01*
X0066879Y0086642D02*
X0049830Y0086642D01*
X0052975Y0085044D02*
X0066935Y0085044D01*
X0066943Y0084995D02*
X0067156Y0084340D01*
X0067468Y0083727D01*
X0067873Y0083170D01*
X0068360Y0082683D01*
X0068917Y0082278D01*
X0069531Y0081965D01*
X0070186Y0081753D01*
X0070866Y0081645D01*
X0071210Y0081645D01*
X0071554Y0081645D01*
X0072234Y0081753D01*
X0072889Y0081965D01*
X0073503Y0082278D01*
X0074060Y0082683D01*
X0074547Y0083170D01*
X0074952Y0083727D01*
X0075264Y0084340D01*
X0075477Y0084995D01*
X0075585Y0085675D01*
X0075585Y0086020D01*
X0071210Y0086020D01*
X0071210Y0086020D01*
X0071210Y0086020D01*
X0066835Y0086020D01*
X0066835Y0085675D01*
X0066943Y0084995D01*
X0067673Y0083445D02*
X0054620Y0083445D01*
X0055776Y0081847D02*
X0069896Y0081847D01*
X0071210Y0081847D02*
X0071210Y0081847D01*
X0071210Y0081645D02*
X0071210Y0086020D01*
X0071210Y0086020D01*
X0071210Y0081645D01*
X0072524Y0081847D02*
X0076912Y0081847D01*
X0076943Y0082044D02*
X0076835Y0081364D01*
X0076835Y0081020D01*
X0081210Y0081020D01*
X0081210Y0081020D01*
X0081210Y0085394D01*
X0081554Y0085394D01*
X0082234Y0085287D01*
X0082889Y0085074D01*
X0083503Y0084761D01*
X0084060Y0084357D01*
X0084547Y0083870D01*
X0084952Y0083313D01*
X0085264Y0082699D01*
X0085477Y0082044D01*
X0085585Y0081364D01*
X0085585Y0081020D01*
X0081210Y0081020D01*
X0081210Y0085394D01*
X0080866Y0085394D01*
X0080186Y0085287D01*
X0079531Y0085074D01*
X0078917Y0084761D01*
X0078360Y0084357D01*
X0077873Y0083870D01*
X0077468Y0083313D01*
X0077156Y0082699D01*
X0076943Y0082044D01*
X0076835Y0081020D02*
X0076835Y0080675D01*
X0076943Y0079995D01*
X0077156Y0079340D01*
X0077468Y0078727D01*
X0077873Y0078170D01*
X0078360Y0077683D01*
X0078917Y0077278D01*
X0079531Y0076965D01*
X0080186Y0076753D01*
X0080866Y0076645D01*
X0081210Y0076645D01*
X0081554Y0076645D01*
X0082234Y0076753D01*
X0082889Y0076965D01*
X0083503Y0077278D01*
X0084060Y0077683D01*
X0084547Y0078170D01*
X0084952Y0078727D01*
X0085264Y0079340D01*
X0085477Y0079995D01*
X0085585Y0080675D01*
X0085585Y0081020D01*
X0081210Y0081020D01*
X0081210Y0081020D01*
X0081210Y0081020D01*
X0076835Y0081020D01*
X0076903Y0080248D02*
X0056670Y0080248D01*
X0057098Y0078650D02*
X0077524Y0078650D01*
X0079362Y0077051D02*
X0057408Y0077051D01*
X0057408Y0075453D02*
X0087080Y0075453D01*
X0087077Y0077051D02*
X0083058Y0077051D01*
X0081210Y0077051D02*
X0081210Y0077051D01*
X0081210Y0076645D02*
X0081210Y0081020D01*
X0081210Y0081020D01*
X0081210Y0076645D01*
X0081210Y0078650D02*
X0081210Y0078650D01*
X0081210Y0080248D02*
X0081210Y0080248D01*
X0081210Y0081847D02*
X0081210Y0081847D01*
X0081210Y0083445D02*
X0081210Y0083445D01*
X0081210Y0085044D02*
X0081210Y0085044D01*
X0082949Y0085044D02*
X0087077Y0085044D01*
X0087077Y0086642D02*
X0075541Y0086642D01*
X0075485Y0085044D02*
X0079471Y0085044D01*
X0080340Y0086645D02*
X0082080Y0086645D01*
X0083688Y0087311D01*
X0084919Y0088542D01*
X0085585Y0090149D01*
X0085585Y0091890D01*
X0084919Y0093498D01*
X0083688Y0094728D01*
X0082080Y0095394D01*
X0080340Y0095394D01*
X0078732Y0094728D01*
X0077501Y0093498D01*
X0076835Y0091890D01*
X0076835Y0090149D01*
X0077501Y0088542D01*
X0078732Y0087311D01*
X0080340Y0086645D01*
X0077802Y0088241D02*
X0074988Y0088241D01*
X0073350Y0089839D02*
X0076964Y0089839D01*
X0076835Y0091438D02*
X0016010Y0091438D01*
X0016010Y0093036D02*
X0068006Y0093036D01*
X0067501Y0093542D02*
X0068732Y0092311D01*
X0070340Y0091645D01*
X0072080Y0091645D01*
X0073688Y0092311D01*
X0074919Y0093542D01*
X0075585Y0095149D01*
X0075585Y0096890D01*
X0074919Y0098498D01*
X0073688Y0099728D01*
X0072080Y0100394D01*
X0070340Y0100394D01*
X0068732Y0099728D01*
X0067501Y0098498D01*
X0066835Y0096890D01*
X0066835Y0095149D01*
X0067501Y0093542D01*
X0067048Y0094635D02*
X0016010Y0094635D01*
X0016010Y0096233D02*
X0066835Y0096233D01*
X0067225Y0097832D02*
X0016010Y0097832D01*
X0016010Y0099430D02*
X0068434Y0099430D01*
X0068732Y0102311D02*
X0070340Y0101645D01*
X0072080Y0101645D01*
X0073688Y0102311D01*
X0074919Y0103542D01*
X0075585Y0105149D01*
X0075585Y0106890D01*
X0074919Y0108498D01*
X0073688Y0109728D01*
X0072080Y0110394D01*
X0070340Y0110394D01*
X0068732Y0109728D01*
X0067501Y0108498D01*
X0066835Y0106890D01*
X0066835Y0105149D01*
X0067501Y0103542D01*
X0068732Y0102311D01*
X0068415Y0102627D02*
X0016010Y0102627D01*
X0016010Y0101029D02*
X0076835Y0101029D01*
X0076835Y0101890D02*
X0076835Y0100149D01*
X0077501Y0098542D01*
X0078732Y0097311D01*
X0080340Y0096645D01*
X0082080Y0096645D01*
X0083688Y0097311D01*
X0084919Y0098542D01*
X0085585Y0100149D01*
X0085585Y0101890D01*
X0084919Y0103498D01*
X0083688Y0104728D01*
X0082080Y0105394D01*
X0080340Y0105394D01*
X0078732Y0104728D01*
X0077501Y0103498D01*
X0076835Y0101890D01*
X0077141Y0102627D02*
X0074005Y0102627D01*
X0075202Y0104226D02*
X0078229Y0104226D01*
X0075585Y0105824D02*
X0087077Y0105824D01*
X0087077Y0104226D02*
X0084191Y0104226D01*
X0085279Y0102627D02*
X0087077Y0102627D01*
X0087077Y0101029D02*
X0085585Y0101029D01*
X0085287Y0099430D02*
X0087077Y0099430D01*
X0087077Y0097832D02*
X0084209Y0097832D01*
X0083782Y0094635D02*
X0087077Y0094635D01*
X0087077Y0096233D02*
X0075585Y0096233D01*
X0075372Y0094635D02*
X0078638Y0094635D01*
X0077310Y0093036D02*
X0074414Y0093036D01*
X0071210Y0089839D02*
X0071210Y0089839D01*
X0071210Y0088241D02*
X0071210Y0088241D01*
X0071210Y0086642D02*
X0071210Y0086642D01*
X0071210Y0085044D02*
X0071210Y0085044D01*
X0071210Y0083445D02*
X0071210Y0083445D01*
X0074747Y0083445D02*
X0077565Y0083445D01*
X0084618Y0088241D02*
X0087077Y0088241D01*
X0087077Y0089839D02*
X0085456Y0089839D01*
X0085585Y0091438D02*
X0087077Y0091438D01*
X0087077Y0093036D02*
X0085110Y0093036D01*
X0078211Y0097832D02*
X0075195Y0097832D01*
X0073986Y0099430D02*
X0077133Y0099430D01*
X0080340Y0106645D02*
X0078732Y0107311D01*
X0077501Y0108542D01*
X0076835Y0110149D01*
X0076835Y0111890D01*
X0077501Y0113498D01*
X0078732Y0114728D01*
X0080340Y0115394D01*
X0082080Y0115394D01*
X0083688Y0114728D01*
X0084919Y0113498D01*
X0085585Y0111890D01*
X0085585Y0110149D01*
X0084919Y0108542D01*
X0083688Y0107311D01*
X0082080Y0106645D01*
X0080340Y0106645D01*
X0078620Y0107423D02*
X0075364Y0107423D01*
X0074395Y0109021D02*
X0077302Y0109021D01*
X0076835Y0110620D02*
X0050592Y0110620D01*
X0053245Y0112218D02*
X0068955Y0112218D01*
X0068732Y0112311D02*
X0070340Y0111645D01*
X0072080Y0111645D01*
X0073688Y0112311D01*
X0074919Y0113542D01*
X0075585Y0115149D01*
X0075585Y0116890D01*
X0074919Y0118498D01*
X0073688Y0119728D01*
X0072080Y0120394D01*
X0070340Y0120394D01*
X0068732Y0119728D01*
X0067501Y0118498D01*
X0066835Y0116890D01*
X0066835Y0115149D01*
X0067501Y0113542D01*
X0068732Y0112311D01*
X0067387Y0113817D02*
X0054843Y0113817D01*
X0055904Y0115415D02*
X0066835Y0115415D01*
X0066887Y0117014D02*
X0056729Y0117014D01*
X0057158Y0118612D02*
X0067616Y0118612D01*
X0069897Y0120211D02*
X0057408Y0120211D01*
X0057408Y0121810D02*
X0087350Y0121810D01*
X0087077Y0120211D02*
X0072523Y0120211D01*
X0074804Y0118612D02*
X0087077Y0118612D01*
X0087077Y0117014D02*
X0075533Y0117014D01*
X0075585Y0115415D02*
X0087077Y0115415D01*
X0087077Y0113817D02*
X0084600Y0113817D01*
X0085449Y0112218D02*
X0087077Y0112218D01*
X0087077Y0110620D02*
X0085585Y0110620D01*
X0085118Y0109021D02*
X0087077Y0109021D01*
X0087077Y0107423D02*
X0083800Y0107423D01*
X0076971Y0112218D02*
X0073465Y0112218D01*
X0075033Y0113817D02*
X0077820Y0113817D01*
X0068025Y0109021D02*
X0016010Y0109021D01*
X0016010Y0107423D02*
X0067056Y0107423D01*
X0066835Y0105824D02*
X0016010Y0105824D01*
X0016010Y0104226D02*
X0067218Y0104226D01*
X0069070Y0089839D02*
X0016010Y0089839D01*
X0016010Y0110620D02*
X0041828Y0110620D01*
X0039175Y0112218D02*
X0016010Y0112218D01*
X0016010Y0113817D02*
X0037577Y0113817D01*
X0036516Y0115415D02*
X0016010Y0115415D01*
X0016010Y0117014D02*
X0035691Y0117014D01*
X0035262Y0118612D02*
X0016010Y0118612D01*
X0016010Y0120211D02*
X0035012Y0120211D01*
X0035012Y0121810D02*
X0016010Y0121810D01*
X0016010Y0123408D02*
X0035257Y0123408D01*
X0035686Y0125007D02*
X0016010Y0125007D01*
X0016010Y0126605D02*
X0036505Y0126605D01*
X0037558Y0128204D02*
X0016010Y0128204D01*
X0016010Y0129802D02*
X0032724Y0129802D01*
X0032077Y0131401D02*
X0016010Y0131401D01*
X0016010Y0132999D02*
X0017589Y0132999D01*
X0024831Y0132999D02*
X0032077Y0132999D01*
X0032077Y0134598D02*
X0027955Y0134598D01*
X0029583Y0136196D02*
X0032077Y0136196D01*
X0032077Y0137795D02*
X0030721Y0137795D01*
X0031595Y0139393D02*
X0032077Y0139393D01*
X0032023Y0140992D02*
X0032077Y0140992D01*
X0054862Y0128204D02*
X0107754Y0128204D01*
X0107793Y0128220D02*
X0106837Y0127824D01*
X0106314Y0127301D01*
X0103483Y0127301D01*
X0102429Y0126246D01*
X0102429Y0120793D01*
X0103483Y0119739D01*
X0108752Y0119739D01*
X0106314Y0117301D01*
X0103483Y0117301D01*
X0102429Y0116246D01*
X0102429Y0110793D01*
X0103483Y0109739D01*
X0108752Y0109739D01*
X0106314Y0107301D01*
X0103483Y0107301D01*
X0102429Y0106246D01*
X0102429Y0100793D01*
X0103483Y0099739D01*
X0108937Y0099739D01*
X0109991Y0100793D01*
X0109991Y0103624D01*
X0117287Y0110920D01*
X0121727Y0110920D01*
X0122683Y0111316D01*
X0123414Y0112047D01*
X0130914Y0119547D01*
X0131214Y0120270D01*
X0131305Y0120179D01*
X0131715Y0119942D01*
X0132173Y0119820D01*
X0133710Y0119820D01*
X0135247Y0119820D01*
X0135705Y0119942D01*
X0136115Y0120179D01*
X0136450Y0120514D01*
X0136687Y0120925D01*
X0136810Y0121383D01*
X0136810Y0125620D01*
X0136810Y0129857D01*
X0136687Y0130314D01*
X0136450Y0130725D01*
X0136115Y0131060D01*
X0135705Y0131297D01*
X0135247Y0131420D01*
X0133710Y0131420D01*
X0133710Y0125620D01*
X0133710Y0125620D01*
X0133710Y0131420D01*
X0132787Y0131420D01*
X0133414Y0132047D01*
X0133719Y0132783D01*
X0135617Y0132783D01*
X0136671Y0133837D01*
X0136671Y0143202D01*
X0135617Y0144257D01*
X0127827Y0144257D01*
X0126772Y0143202D01*
X0126772Y0133837D01*
X0127311Y0133298D01*
X0126506Y0132492D01*
X0126210Y0131778D01*
X0125914Y0132492D01*
X0125109Y0133298D01*
X0125648Y0133837D01*
X0125648Y0143202D01*
X0124593Y0144257D01*
X0116803Y0144257D01*
X0115749Y0143202D01*
X0115749Y0133837D01*
X0116803Y0132783D01*
X0118701Y0132783D01*
X0119006Y0132047D01*
X0119633Y0131420D01*
X0116664Y0131420D01*
X0115610Y0130365D01*
X0115610Y0128220D01*
X0107793Y0128220D01*
X0108310Y0125620D02*
X0106210Y0123520D01*
X0108310Y0125620D02*
X0118710Y0125620D01*
X0123710Y0125620D02*
X0123710Y0121020D01*
X0121210Y0118520D01*
X0111210Y0118520D01*
X0106210Y0113520D01*
X0102429Y0113817D02*
X0102343Y0113817D01*
X0102343Y0115415D02*
X0102429Y0115415D01*
X0102343Y0117014D02*
X0103196Y0117014D01*
X0102343Y0118612D02*
X0107626Y0118612D01*
X0103011Y0120211D02*
X0102343Y0120211D01*
X0102429Y0121810D02*
X0102070Y0121810D01*
X0102429Y0123408D02*
X0057163Y0123408D01*
X0056734Y0125007D02*
X0102429Y0125007D01*
X0102788Y0126605D02*
X0055915Y0126605D01*
X0071956Y0129802D02*
X0115610Y0129802D01*
X0116645Y0131401D02*
X0072603Y0131401D01*
X0072603Y0132999D02*
X0116587Y0132999D01*
X0115749Y0134598D02*
X0072603Y0134598D01*
X0072603Y0136196D02*
X0115749Y0136196D01*
X0115749Y0137795D02*
X0072603Y0137795D01*
X0072603Y0139393D02*
X0115749Y0139393D01*
X0115749Y0140992D02*
X0072603Y0140992D01*
X0072603Y0142590D02*
X0115749Y0142590D01*
X0116735Y0144189D02*
X0072603Y0144189D01*
X0072603Y0145787D02*
X0145327Y0145787D01*
X0145111Y0144189D02*
X0135685Y0144189D01*
X0136671Y0142590D02*
X0145111Y0142590D01*
X0145397Y0140992D02*
X0136671Y0140992D01*
X0136671Y0139393D02*
X0145825Y0139393D01*
X0146699Y0137795D02*
X0136671Y0137795D01*
X0136671Y0136196D02*
X0147837Y0136196D01*
X0149465Y0134598D02*
X0136671Y0134598D01*
X0135833Y0132999D02*
X0152589Y0132999D01*
X0159831Y0132999D02*
X0161331Y0132999D01*
X0161331Y0131401D02*
X0135318Y0131401D01*
X0133710Y0131401D02*
X0133710Y0131401D01*
X0133710Y0129802D02*
X0133710Y0129802D01*
X0133710Y0128204D02*
X0133710Y0128204D01*
X0133710Y0126605D02*
X0133710Y0126605D01*
X0133710Y0125620D02*
X0136810Y0125620D01*
X0133710Y0125620D01*
X0133710Y0125620D01*
X0133710Y0119820D01*
X0133710Y0125620D01*
X0133710Y0125620D01*
X0133710Y0125007D02*
X0133710Y0125007D01*
X0133710Y0123408D02*
X0133710Y0123408D01*
X0133710Y0121810D02*
X0133710Y0121810D01*
X0133710Y0120211D02*
X0133710Y0120211D01*
X0136147Y0120211D02*
X0161331Y0120211D01*
X0161331Y0118612D02*
X0129980Y0118612D01*
X0131189Y0120211D02*
X0131273Y0120211D01*
X0128710Y0121020D02*
X0121210Y0113520D01*
X0116210Y0113520D01*
X0106210Y0103520D01*
X0102429Y0104226D02*
X0102343Y0104226D01*
X0102343Y0105824D02*
X0102429Y0105824D01*
X0102343Y0107423D02*
X0106436Y0107423D01*
X0108035Y0109021D02*
X0102343Y0109021D01*
X0102343Y0110620D02*
X0102602Y0110620D01*
X0102429Y0112218D02*
X0102343Y0112218D01*
X0112192Y0105824D02*
X0115610Y0105824D01*
X0115610Y0104226D02*
X0110593Y0104226D01*
X0109991Y0102627D02*
X0115610Y0102627D01*
X0114642Y0101029D02*
X0109991Y0101029D01*
X0113307Y0099430D02*
X0102343Y0099430D01*
X0102343Y0097832D02*
X0113098Y0097832D01*
X0113098Y0096233D02*
X0102343Y0096233D01*
X0102343Y0094635D02*
X0113098Y0094635D01*
X0110749Y0093036D02*
X0102343Y0093036D01*
X0102343Y0091438D02*
X0110451Y0091438D01*
X0108853Y0089839D02*
X0102343Y0089839D01*
X0102343Y0088241D02*
X0107254Y0088241D01*
X0105656Y0086642D02*
X0102343Y0086642D01*
X0102343Y0085044D02*
X0104057Y0085044D01*
X0102459Y0083445D02*
X0102343Y0083445D01*
X0111210Y0078520D02*
X0106210Y0073520D01*
X0106210Y0069031D01*
X0105698Y0068520D01*
X0096210Y0068520D01*
X0093521Y0065862D02*
X0092229Y0065862D01*
X0090630Y0064263D02*
X0100749Y0064263D01*
X0100749Y0065862D02*
X0098899Y0065862D01*
X0091269Y0072256D02*
X0056794Y0072256D01*
X0057222Y0073854D02*
X0088433Y0073854D01*
X0089671Y0070657D02*
X0056044Y0070657D01*
X0055085Y0069059D02*
X0088072Y0069059D01*
X0086473Y0067460D02*
X0053486Y0067460D01*
X0051011Y0065862D02*
X0084875Y0065862D01*
X0089032Y0062665D02*
X0112697Y0062665D01*
X0111772Y0064263D02*
X0110648Y0064263D01*
X0110648Y0065862D02*
X0111772Y0065862D01*
X0111772Y0067460D02*
X0110648Y0067460D01*
X0110648Y0069059D02*
X0111772Y0069059D01*
X0111772Y0070657D02*
X0110648Y0070657D01*
X0110648Y0072256D02*
X0111772Y0072256D01*
X0112424Y0073854D02*
X0110221Y0073854D01*
X0111820Y0075453D02*
X0132277Y0075453D01*
X0131260Y0076469D02*
X0134160Y0073570D01*
X0136210Y0073570D01*
X0138260Y0073570D01*
X0141160Y0076469D01*
X0141160Y0078520D01*
X0141160Y0080570D01*
X0138260Y0083470D01*
X0136210Y0083470D01*
X0134160Y0083470D01*
X0131260Y0080570D01*
X0131260Y0078520D01*
X0136210Y0078520D01*
X0136210Y0078520D01*
X0136210Y0083470D01*
X0136210Y0078520D01*
X0141160Y0078520D01*
X0136210Y0078520D01*
X0136210Y0078520D01*
X0136210Y0078520D01*
X0131260Y0078520D01*
X0131260Y0076469D01*
X0131260Y0077051D02*
X0123416Y0077051D01*
X0123810Y0078650D02*
X0131260Y0078650D01*
X0131260Y0080248D02*
X0123810Y0080248D01*
X0123810Y0081847D02*
X0132537Y0081847D01*
X0131280Y0083445D02*
X0134135Y0083445D01*
X0136210Y0083445D02*
X0136210Y0083445D01*
X0136210Y0081847D02*
X0136210Y0081847D01*
X0136210Y0080248D02*
X0136210Y0080248D01*
X0136210Y0078650D02*
X0136210Y0078650D01*
X0136210Y0078520D02*
X0136210Y0073570D01*
X0136210Y0078520D01*
X0136210Y0078520D01*
X0136210Y0077051D02*
X0136210Y0077051D01*
X0136210Y0075453D02*
X0136210Y0075453D01*
X0136210Y0073854D02*
X0136210Y0073854D01*
X0133875Y0073854D02*
X0121019Y0073854D01*
X0121210Y0078520D02*
X0121210Y0093520D01*
X0123710Y0096020D01*
X0123710Y0101420D01*
X0128710Y0101420D01*
X0133710Y0101420D02*
X0138310Y0101420D01*
X0141210Y0098520D01*
X0144991Y0097832D02*
X0161331Y0097832D01*
X0161331Y0099430D02*
X0144991Y0099430D01*
X0144991Y0101029D02*
X0161331Y0101029D01*
X0161331Y0102627D02*
X0140779Y0102627D01*
X0136810Y0104226D02*
X0161331Y0104226D01*
X0161331Y0105824D02*
X0136810Y0105824D01*
X0136810Y0097832D02*
X0137429Y0097832D01*
X0137429Y0096233D02*
X0136369Y0096233D01*
X0131671Y0093036D02*
X0161331Y0093036D01*
X0161331Y0091438D02*
X0131671Y0091438D01*
X0126722Y0088520D02*
X0146210Y0088520D01*
X0146210Y0078520D01*
X0149883Y0081847D02*
X0161331Y0081847D01*
X0161331Y0083445D02*
X0148810Y0083445D01*
X0148810Y0085044D02*
X0161331Y0085044D01*
X0161331Y0086642D02*
X0148810Y0086642D01*
X0148810Y0088241D02*
X0161331Y0088241D01*
X0161331Y0089839D02*
X0148478Y0089839D01*
X0143610Y0085044D02*
X0131671Y0085044D01*
X0138285Y0083445D02*
X0143610Y0083445D01*
X0142537Y0081847D02*
X0139883Y0081847D01*
X0141160Y0080248D02*
X0141568Y0080248D01*
X0141260Y0078650D02*
X0141160Y0078650D01*
X0141160Y0077051D02*
X0141460Y0077051D01*
X0142277Y0075453D02*
X0140143Y0075453D01*
X0138545Y0073854D02*
X0144538Y0073854D01*
X0147881Y0073854D02*
X0161331Y0073854D01*
X0161331Y0075453D02*
X0150143Y0075453D01*
X0150960Y0077051D02*
X0161331Y0077051D01*
X0161331Y0078650D02*
X0151160Y0078650D01*
X0150852Y0080248D02*
X0161331Y0080248D01*
X0161331Y0094635D02*
X0125951Y0094635D01*
X0118710Y0101420D02*
X0115698Y0098408D01*
X0115698Y0088520D01*
X0115698Y0089031D01*
X0113710Y0091020D01*
X0070541Y0047850D01*
X0066210Y0047850D01*
X0062441Y0048278D02*
X0041210Y0048278D01*
X0041210Y0046679D02*
X0062441Y0046679D01*
X0062441Y0045081D02*
X0041210Y0045081D01*
X0041210Y0043482D02*
X0059493Y0043482D01*
X0054402Y0041884D02*
X0041210Y0041884D01*
X0041210Y0040285D02*
X0052828Y0040285D01*
X0052410Y0038687D02*
X0041210Y0038687D01*
X0041210Y0037088D02*
X0052410Y0037088D01*
X0052410Y0035490D02*
X0041210Y0035490D01*
X0041210Y0033891D02*
X0052410Y0033891D01*
X0052410Y0032293D02*
X0041210Y0032293D01*
X0041210Y0030694D02*
X0052410Y0030694D01*
X0052410Y0029096D02*
X0041210Y0029096D01*
X0041210Y0027497D02*
X0052410Y0027497D01*
X0052410Y0025899D02*
X0041210Y0025899D01*
X0041210Y0024300D02*
X0052410Y0024300D01*
X0052436Y0022702D02*
X0041210Y0022702D01*
X0041210Y0021103D02*
X0053252Y0021103D01*
X0054851Y0019505D02*
X0041210Y0019505D01*
X0041210Y0017906D02*
X0056449Y0017906D01*
X0058048Y0016308D02*
X0041210Y0016308D01*
X0041210Y0014709D02*
X0059755Y0014709D01*
X0061475Y0013111D02*
X0041210Y0013111D01*
X0041210Y0011512D02*
X0077928Y0011512D01*
X0076475Y0013111D02*
X0070945Y0013111D01*
X0079442Y0009914D02*
X0041210Y0009914D01*
X0060010Y0025899D02*
X0060473Y0025899D01*
X0060473Y0027497D02*
X0060010Y0027497D01*
X0060010Y0029096D02*
X0060473Y0029096D01*
X0060473Y0030694D02*
X0060010Y0030694D01*
X0060010Y0032293D02*
X0060473Y0032293D01*
X0060010Y0033891D02*
X0061438Y0033891D01*
X0066210Y0033520D02*
X0066210Y0029031D01*
X0066210Y0033520D02*
X0071210Y0038520D01*
X0070619Y0038520D01*
X0069950Y0039189D01*
X0081879Y0039189D01*
X0091210Y0048520D01*
X0093927Y0048520D01*
X0098309Y0046679D02*
X0099544Y0046679D01*
X0099174Y0048278D02*
X0098679Y0048278D01*
X0098509Y0049877D02*
X0099344Y0049877D01*
X0100160Y0051475D02*
X0097693Y0051475D01*
X0095352Y0053074D02*
X0102501Y0053074D01*
X0104705Y0054672D02*
X0081039Y0054672D01*
X0079441Y0053074D02*
X0092501Y0053074D01*
X0090160Y0051475D02*
X0077842Y0051475D01*
X0076244Y0049877D02*
X0088890Y0049877D01*
X0087291Y0048278D02*
X0074645Y0048278D01*
X0073047Y0046679D02*
X0085693Y0046679D01*
X0084094Y0045081D02*
X0069978Y0045081D01*
X0072927Y0043482D02*
X0082496Y0043482D01*
X0080897Y0041884D02*
X0073719Y0041884D01*
X0073521Y0035490D02*
X0079503Y0035490D01*
X0081210Y0033520D02*
X0086210Y0038520D01*
X0093927Y0038520D01*
X0097284Y0041884D02*
X0100127Y0041884D01*
X0100127Y0043482D02*
X0089850Y0043482D01*
X0090569Y0041884D02*
X0088251Y0041884D01*
X0086857Y0035490D02*
X0090235Y0035490D01*
X0092681Y0033891D02*
X0085982Y0033891D01*
X0086947Y0032293D02*
X0090978Y0032293D01*
X0091234Y0032549D02*
X0089897Y0031212D01*
X0089174Y0029465D01*
X0089174Y0027574D01*
X0089897Y0025827D01*
X0091234Y0024490D01*
X0092981Y0023767D01*
X0094872Y0023767D01*
X0096619Y0024490D01*
X0097956Y0025827D01*
X0098679Y0027574D01*
X0098679Y0029465D01*
X0097956Y0031212D01*
X0096619Y0032549D01*
X0094872Y0033272D01*
X0092981Y0033272D01*
X0091234Y0032549D01*
X0089683Y0030694D02*
X0086947Y0030694D01*
X0086947Y0029096D02*
X0089174Y0029096D01*
X0089206Y0027497D02*
X0086947Y0027497D01*
X0086947Y0025899D02*
X0089868Y0025899D01*
X0091693Y0024300D02*
X0086111Y0024300D01*
X0086148Y0022702D02*
X0089658Y0022702D01*
X0089533Y0022578D02*
X0089296Y0022167D01*
X0089174Y0021709D01*
X0089174Y0018520D01*
X0093926Y0018520D01*
X0093926Y0018520D01*
X0093926Y0023272D01*
X0090737Y0023272D01*
X0090279Y0023150D01*
X0089869Y0022913D01*
X0089533Y0022578D01*
X0089174Y0021103D02*
X0086947Y0021103D01*
X0086947Y0019505D02*
X0089174Y0019505D01*
X0089174Y0018520D02*
X0089174Y0015330D01*
X0089296Y0014872D01*
X0089533Y0014462D01*
X0089869Y0014127D01*
X0090279Y0013890D01*
X0090737Y0013767D01*
X0093926Y0013767D01*
X0093926Y0018520D01*
X0093927Y0018520D01*
X0098679Y0018520D01*
X0098679Y0021709D01*
X0098557Y0022167D01*
X0098320Y0022578D01*
X0097984Y0022913D01*
X0097574Y0023150D01*
X0097116Y0023272D01*
X0093927Y0023272D01*
X0093927Y0018520D01*
X0093927Y0018520D01*
X0098679Y0018520D01*
X0098679Y0015330D01*
X0098557Y0014872D01*
X0098320Y0014462D01*
X0097984Y0014127D01*
X0097574Y0013890D01*
X0097116Y0013767D01*
X0093927Y0013767D01*
X0093927Y0018520D01*
X0093926Y0018520D01*
X0089174Y0018520D01*
X0089174Y0017906D02*
X0086947Y0017906D01*
X0086947Y0016308D02*
X0089174Y0016308D01*
X0089390Y0014709D02*
X0086947Y0014709D01*
X0086993Y0013111D02*
X0107410Y0013111D01*
X0107410Y0014709D02*
X0106837Y0014709D01*
X0101016Y0014709D02*
X0098463Y0014709D01*
X0098679Y0016308D02*
X0099698Y0016308D01*
X0099174Y0017906D02*
X0098679Y0017906D01*
X0098679Y0019505D02*
X0099190Y0019505D01*
X0098679Y0021103D02*
X0099852Y0021103D01*
X0098195Y0022702D02*
X0101604Y0022702D01*
X0101693Y0024300D02*
X0096160Y0024300D01*
X0097985Y0025899D02*
X0099868Y0025899D01*
X0099206Y0027497D02*
X0098647Y0027497D01*
X0098679Y0029096D02*
X0099174Y0029096D01*
X0099683Y0030694D02*
X0098170Y0030694D01*
X0096875Y0032293D02*
X0100127Y0032293D01*
X0100127Y0033891D02*
X0095172Y0033891D01*
X0097618Y0035490D02*
X0100127Y0035490D01*
X0099375Y0037088D02*
X0098478Y0037088D01*
X0098679Y0038687D02*
X0099174Y0038687D01*
X0099514Y0040285D02*
X0098339Y0040285D01*
X0097209Y0045081D02*
X0100127Y0045081D01*
X0107726Y0045081D02*
X0121210Y0045081D01*
X0121210Y0046679D02*
X0108309Y0046679D01*
X0107956Y0045827D02*
X0108679Y0047574D01*
X0108679Y0047898D01*
X0119943Y0059162D01*
X0120522Y0060559D01*
X0120522Y0062783D01*
X0120617Y0062783D01*
X0121210Y0063376D01*
X0121210Y0038520D01*
X0128742Y0038520D01*
X0128705Y0038455D01*
X0128564Y0037928D01*
X0128564Y0035466D01*
X0132079Y0035466D01*
X0132079Y0035235D01*
X0132310Y0035235D01*
X0132310Y0035466D01*
X0135825Y0035466D01*
X0135825Y0037928D01*
X0135684Y0038455D01*
X0135646Y0038520D01*
X0137585Y0038520D01*
X0137579Y0038514D01*
X0137579Y0036515D01*
X0137410Y0036106D01*
X0137410Y0030094D01*
X0130786Y0023470D01*
X0130225Y0023470D01*
X0128406Y0022716D01*
X0127014Y0021324D01*
X0126260Y0019504D01*
X0126260Y0018944D01*
X0119636Y0012320D01*
X0115010Y0012320D01*
X0115010Y0024276D01*
X0114431Y0025672D01*
X0113362Y0026741D01*
X0108362Y0031741D01*
X0107726Y0032005D01*
X0107726Y0035598D01*
X0107956Y0035827D01*
X0108679Y0037574D01*
X0108679Y0039465D01*
X0107956Y0041212D01*
X0107726Y0041441D01*
X0107726Y0045598D01*
X0107956Y0045827D01*
X0109059Y0048278D02*
X0121210Y0048278D01*
X0121210Y0049877D02*
X0110657Y0049877D01*
X0112256Y0051475D02*
X0121210Y0051475D01*
X0121210Y0053074D02*
X0113854Y0053074D01*
X0115453Y0054672D02*
X0121210Y0054672D01*
X0121210Y0056271D02*
X0117051Y0056271D01*
X0118650Y0057869D02*
X0121210Y0057869D01*
X0121210Y0059468D02*
X0120070Y0059468D01*
X0120522Y0061066D02*
X0121210Y0061066D01*
X0121210Y0062665D02*
X0120522Y0062665D01*
X0111099Y0061066D02*
X0087433Y0061066D01*
X0085835Y0059468D02*
X0109500Y0059468D01*
X0107902Y0057869D02*
X0084236Y0057869D01*
X0082638Y0056271D02*
X0106303Y0056271D01*
X0107726Y0043482D02*
X0121210Y0043482D01*
X0121210Y0041884D02*
X0107726Y0041884D01*
X0108339Y0040285D02*
X0121210Y0040285D01*
X0121210Y0038687D02*
X0108679Y0038687D01*
X0108478Y0037088D02*
X0128564Y0037088D01*
X0128564Y0035490D02*
X0107726Y0035490D01*
X0107726Y0033891D02*
X0128563Y0033891D01*
X0128564Y0032773D02*
X0128705Y0032245D01*
X0128978Y0031772D01*
X0129364Y0031386D01*
X0129837Y0031113D01*
X0130365Y0030972D01*
X0132079Y0030972D01*
X0132079Y0035235D01*
X0128563Y0035235D01*
X0128564Y0032773D01*
X0128692Y0032293D02*
X0107726Y0032293D01*
X0109409Y0030694D02*
X0137410Y0030694D01*
X0137410Y0032293D02*
X0135696Y0032293D01*
X0135684Y0032245D02*
X0135825Y0032773D01*
X0135825Y0035235D01*
X0132310Y0035235D01*
X0132310Y0030972D01*
X0134023Y0030972D01*
X0134551Y0031113D01*
X0135024Y0031386D01*
X0135410Y0031772D01*
X0135684Y0032245D01*
X0135825Y0033891D02*
X0137410Y0033891D01*
X0137410Y0035490D02*
X0135825Y0035490D01*
X0135825Y0037088D02*
X0137579Y0037088D01*
X0132310Y0033891D02*
X0132079Y0033891D01*
X0132079Y0032293D02*
X0132310Y0032293D01*
X0136412Y0029096D02*
X0111008Y0029096D01*
X0112606Y0027497D02*
X0134814Y0027497D01*
X0133215Y0025899D02*
X0114205Y0025899D01*
X0115000Y0024300D02*
X0131617Y0024300D01*
X0128392Y0022702D02*
X0115010Y0022702D01*
X0115010Y0021103D02*
X0126922Y0021103D01*
X0126260Y0019505D02*
X0115010Y0019505D01*
X0115010Y0017906D02*
X0125223Y0017906D01*
X0123624Y0016308D02*
X0115010Y0016308D01*
X0115010Y0014709D02*
X0122026Y0014709D01*
X0120427Y0013111D02*
X0115010Y0013111D01*
X0106654Y0022702D02*
X0106249Y0022702D01*
X0093927Y0022702D02*
X0093926Y0022702D01*
X0093926Y0021103D02*
X0093927Y0021103D01*
X0093926Y0019505D02*
X0093927Y0019505D01*
X0093926Y0017906D02*
X0093927Y0017906D01*
X0093926Y0016308D02*
X0093927Y0016308D01*
X0093926Y0014709D02*
X0093927Y0014709D01*
X0081210Y0029031D02*
X0081210Y0033520D01*
X0076438Y0033891D02*
X0070982Y0033891D01*
X0071947Y0032293D02*
X0075473Y0032293D01*
X0075473Y0030694D02*
X0071947Y0030694D01*
X0071947Y0029096D02*
X0075473Y0029096D01*
X0075473Y0027497D02*
X0071947Y0027497D01*
X0071947Y0025899D02*
X0075473Y0025899D01*
X0076309Y0024300D02*
X0071111Y0024300D01*
X0071148Y0022702D02*
X0076272Y0022702D01*
X0061309Y0024300D02*
X0060803Y0024300D01*
X0062441Y0049877D02*
X0041210Y0049877D01*
X0041210Y0051475D02*
X0062565Y0051475D01*
X0069855Y0051475D02*
X0070488Y0051475D01*
X0072087Y0053074D02*
X0041210Y0053074D01*
X0041210Y0054672D02*
X0073685Y0054672D01*
X0075284Y0056271D02*
X0041210Y0056271D01*
X0041210Y0057869D02*
X0076882Y0057869D01*
X0078481Y0059468D02*
X0041210Y0059468D01*
X0041210Y0061066D02*
X0080079Y0061066D01*
X0084896Y0078650D02*
X0087077Y0078650D01*
X0087077Y0080248D02*
X0085517Y0080248D01*
X0085508Y0081847D02*
X0087077Y0081847D01*
X0087077Y0083445D02*
X0084855Y0083445D01*
X0102343Y0101029D02*
X0102429Y0101029D01*
X0102429Y0102627D02*
X0102343Y0102627D01*
X0113790Y0107423D02*
X0161331Y0107423D01*
X0161331Y0109021D02*
X0115389Y0109021D01*
X0116987Y0110620D02*
X0161331Y0110620D01*
X0161331Y0112218D02*
X0123586Y0112218D01*
X0125184Y0113817D02*
X0161331Y0113817D01*
X0161331Y0115415D02*
X0126783Y0115415D01*
X0128381Y0117014D02*
X0161331Y0117014D01*
X0161331Y0121810D02*
X0136810Y0121810D01*
X0136810Y0123408D02*
X0161331Y0123408D01*
X0161331Y0125007D02*
X0136810Y0125007D01*
X0136810Y0126605D02*
X0161331Y0126605D01*
X0161331Y0128204D02*
X0136810Y0128204D01*
X0136810Y0129802D02*
X0161331Y0129802D01*
X0145755Y0147386D02*
X0072603Y0147386D01*
X0121210Y0138008D02*
X0121210Y0133520D01*
X0123710Y0131020D01*
X0123710Y0125620D01*
X0128710Y0125620D02*
X0128710Y0121020D01*
X0128710Y0125620D02*
X0128710Y0131020D01*
X0131210Y0133520D01*
X0131210Y0138008D01*
X0126772Y0137795D02*
X0125648Y0137795D01*
X0125648Y0139393D02*
X0126772Y0139393D01*
X0126772Y0140992D02*
X0125648Y0140992D01*
X0125648Y0142590D02*
X0126772Y0142590D01*
X0127759Y0144189D02*
X0124661Y0144189D01*
X0125648Y0136196D02*
X0126772Y0136196D01*
X0126772Y0134598D02*
X0125648Y0134598D01*
X0125407Y0132999D02*
X0127012Y0132999D01*
X0144991Y0096233D02*
X0161331Y0096233D01*
X0121210Y0078520D02*
X0111210Y0078520D01*
X0144835Y0038520D02*
X0146601Y0038520D01*
X0146595Y0038514D01*
X0146595Y0036515D01*
X0146426Y0036106D01*
X0146426Y0028748D01*
X0147004Y0027351D01*
X0147429Y0026927D01*
X0147429Y0025793D01*
X0148483Y0024739D01*
X0150408Y0024739D01*
X0150454Y0024720D01*
X0151966Y0024720D01*
X0152011Y0024739D01*
X0153937Y0024739D01*
X0154991Y0025793D01*
X0154991Y0027718D01*
X0155010Y0027764D01*
X0155010Y0029276D01*
X0154991Y0029321D01*
X0154991Y0031246D01*
X0154026Y0032212D01*
X0154026Y0036106D01*
X0153856Y0036515D01*
X0153856Y0038514D01*
X0153851Y0038520D01*
X0161331Y0038520D01*
X0161331Y0023379D01*
X0160494Y0023862D01*
X0157671Y0024619D01*
X0154749Y0024619D01*
X0151926Y0023862D01*
X0149395Y0022401D01*
X0147328Y0020335D01*
X0146160Y0018311D01*
X0146160Y0018520D01*
X0146160Y0020570D01*
X0143260Y0023470D01*
X0141534Y0023470D01*
X0144431Y0026367D01*
X0145010Y0027764D01*
X0145010Y0029276D01*
X0145010Y0036106D01*
X0144841Y0036515D01*
X0144841Y0038514D01*
X0144835Y0038520D01*
X0144841Y0037088D02*
X0146595Y0037088D01*
X0146426Y0035490D02*
X0145010Y0035490D01*
X0145010Y0033891D02*
X0146426Y0033891D01*
X0146426Y0032293D02*
X0145010Y0032293D01*
X0145010Y0030694D02*
X0146426Y0030694D01*
X0146426Y0029096D02*
X0145010Y0029096D01*
X0144900Y0027497D02*
X0146944Y0027497D01*
X0147429Y0025899D02*
X0143963Y0025899D01*
X0142365Y0024300D02*
X0153560Y0024300D01*
X0154991Y0025899D02*
X0161331Y0025899D01*
X0161331Y0027497D02*
X0154991Y0027497D01*
X0155010Y0029096D02*
X0161331Y0029096D01*
X0161331Y0030694D02*
X0154991Y0030694D01*
X0154026Y0032293D02*
X0161331Y0032293D01*
X0161331Y0033891D02*
X0154026Y0033891D01*
X0154026Y0035490D02*
X0161331Y0035490D01*
X0161331Y0037088D02*
X0153856Y0037088D01*
X0158860Y0024300D02*
X0161331Y0024300D01*
X0149915Y0022702D02*
X0144028Y0022702D01*
X0145627Y0021103D02*
X0148097Y0021103D01*
X0146849Y0019505D02*
X0146160Y0019505D01*
X0146160Y0018520D02*
X0141210Y0018520D01*
X0141210Y0018520D01*
X0146160Y0018520D01*
X0145272Y0015581D02*
X0145111Y0014981D01*
X0145111Y0012058D01*
X0145867Y0009236D01*
X0146396Y0008320D01*
X0126384Y0008320D01*
X0131634Y0013570D01*
X0132195Y0013570D01*
X0134014Y0014323D01*
X0135406Y0015716D01*
X0136160Y0017535D01*
X0136160Y0018096D01*
X0136260Y0018196D01*
X0136260Y0016469D01*
X0139160Y0013570D01*
X0141210Y0013570D01*
X0143260Y0013570D01*
X0145272Y0015581D01*
X0145111Y0014709D02*
X0144400Y0014709D01*
X0145111Y0013111D02*
X0131175Y0013111D01*
X0129577Y0011512D02*
X0145257Y0011512D01*
X0145685Y0009914D02*
X0127978Y0009914D01*
X0134400Y0014709D02*
X0138020Y0014709D01*
X0136422Y0016308D02*
X0135652Y0016308D01*
X0136160Y0017906D02*
X0136260Y0017906D01*
X0141210Y0017906D02*
X0141210Y0017906D01*
X0141210Y0018520D02*
X0141210Y0013570D01*
X0141210Y0018520D01*
X0141210Y0018520D01*
X0141210Y0016308D02*
X0141210Y0016308D01*
X0141210Y0014709D02*
X0141210Y0014709D01*
D24*
X0151210Y0028520D03*
X0141210Y0098520D03*
X0106210Y0103520D03*
X0106210Y0113520D03*
X0106210Y0123520D03*
D25*
X0121210Y0138008D02*
X0120698Y0138520D01*
X0131210Y0138008D02*
X0131722Y0138520D01*
X0116722Y0068520D02*
X0116722Y0061315D01*
X0103927Y0048520D01*
X0103927Y0038520D01*
X0103927Y0028520D01*
X0106210Y0028520D01*
X0111210Y0023520D01*
X0111210Y0008520D01*
X0121210Y0008520D01*
X0131210Y0018520D01*
X0141210Y0028520D01*
X0141210Y0035350D01*
X0150226Y0035350D02*
X0150226Y0029504D01*
X0151210Y0028520D01*
X0111210Y0008520D02*
X0086210Y0008520D01*
X0081210Y0013520D01*
X0081210Y0018008D01*
X0066210Y0018008D01*
X0061722Y0018008D01*
X0056210Y0023520D01*
X0056210Y0038520D01*
X0061801Y0038520D01*
X0062470Y0039189D01*
D26*
X0096210Y0068520D03*
M02*
