%
M48
M72
T01C0.0236
T02C0.0315
T03C0.0320
T04C0.1260
T05C0.1280
%
T01
X9621Y6852
X10621Y10352
X10621Y11352
X10621Y12352
X14121Y9852
X15121Y2852
T02
X10393Y2852
X10393Y3852
X9393Y3852
X9393Y2852
X9393Y1852
X10393Y1852
X10393Y4852
X9393Y4852
X8121Y8102
X8121Y9102
X8121Y10102
X7121Y10602
X7121Y11602
X8121Y11102
X7121Y9602
X7121Y8602
T03
X13621Y7852
X14621Y7852
X14121Y1852
X13121Y1852
T04
X2121Y1352
X15621Y1352
X15621Y14352
X2121Y14352
T05
X4621Y12102
X4621Y7602
M30
